G04*
G04 #@! TF.GenerationSoftware,Altium Limited,Altium Designer,24.1.2 (44)*
G04*
G04 Layer_Color=255*
%FSLAX44Y44*%
%MOMM*%
G71*
G04*
G04 #@! TF.SameCoordinates,E8B3DE28-F026-41F4-99A8-411043518BE1*
G04*
G04*
G04 #@! TF.FilePolarity,Positive*
G04*
G01*
G75*
G04:AMPARAMS|DCode=21|XSize=3.2mm|YSize=1mm|CornerRadius=0.25mm|HoleSize=0mm|Usage=FLASHONLY|Rotation=0.000|XOffset=0mm|YOffset=0mm|HoleType=Round|Shape=RoundedRectangle|*
%AMROUNDEDRECTD21*
21,1,3.2000,0.5000,0,0,0.0*
21,1,2.7000,1.0000,0,0,0.0*
1,1,0.5000,1.3500,-0.2500*
1,1,0.5000,-1.3500,-0.2500*
1,1,0.5000,-1.3500,0.2500*
1,1,0.5000,1.3500,0.2500*
%
%ADD21ROUNDEDRECTD21*%
G04:AMPARAMS|DCode=22|XSize=1.2mm|YSize=1mm|CornerRadius=0.25mm|HoleSize=0mm|Usage=FLASHONLY|Rotation=90.000|XOffset=0mm|YOffset=0mm|HoleType=Round|Shape=RoundedRectangle|*
%AMROUNDEDRECTD22*
21,1,1.2000,0.5000,0,0,90.0*
21,1,0.7000,1.0000,0,0,90.0*
1,1,0.5000,0.2500,0.3500*
1,1,0.5000,0.2500,-0.3500*
1,1,0.5000,-0.2500,-0.3500*
1,1,0.5000,-0.2500,0.3500*
%
%ADD22ROUNDEDRECTD22*%
G04:AMPARAMS|DCode=23|XSize=0.9mm|YSize=0.9mm|CornerRadius=0.225mm|HoleSize=0mm|Usage=FLASHONLY|Rotation=0.000|XOffset=0mm|YOffset=0mm|HoleType=Round|Shape=RoundedRectangle|*
%AMROUNDEDRECTD23*
21,1,0.9000,0.4500,0,0,0.0*
21,1,0.4500,0.9000,0,0,0.0*
1,1,0.4500,0.2250,-0.2250*
1,1,0.4500,-0.2250,-0.2250*
1,1,0.4500,-0.2250,0.2250*
1,1,0.4500,0.2250,0.2250*
%
%ADD23ROUNDEDRECTD23*%
%ADD24O,0.2200X0.8600*%
%ADD25R,0.2200X0.8600*%
%ADD26O,0.8600X0.2200*%
G04:AMPARAMS|DCode=27|XSize=1.2mm|YSize=1mm|CornerRadius=0.25mm|HoleSize=0mm|Usage=FLASHONLY|Rotation=0.000|XOffset=0mm|YOffset=0mm|HoleType=Round|Shape=RoundedRectangle|*
%AMROUNDEDRECTD27*
21,1,1.2000,0.5000,0,0,0.0*
21,1,0.7000,1.0000,0,0,0.0*
1,1,0.5000,0.3500,-0.2500*
1,1,0.5000,-0.3500,-0.2500*
1,1,0.5000,-0.3500,0.2500*
1,1,0.5000,0.3500,0.2500*
%
%ADD27ROUNDEDRECTD27*%
%ADD28R,5.5000X5.5000*%
G04:AMPARAMS|DCode=29|XSize=0.7mm|YSize=0.85mm|CornerRadius=0.175mm|HoleSize=0mm|Usage=FLASHONLY|Rotation=270.000|XOffset=0mm|YOffset=0mm|HoleType=Round|Shape=RoundedRectangle|*
%AMROUNDEDRECTD29*
21,1,0.7000,0.5000,0,0,270.0*
21,1,0.3500,0.8500,0,0,270.0*
1,1,0.3500,-0.2500,-0.1750*
1,1,0.3500,-0.2500,0.1750*
1,1,0.3500,0.2500,0.1750*
1,1,0.3500,0.2500,-0.1750*
%
%ADD29ROUNDEDRECTD29*%
%ADD30R,0.4500X0.5000*%
G04:AMPARAMS|DCode=31|XSize=2mm|YSize=1.4mm|CornerRadius=0.35mm|HoleSize=0mm|Usage=FLASHONLY|Rotation=90.000|XOffset=0mm|YOffset=0mm|HoleType=Round|Shape=RoundedRectangle|*
%AMROUNDEDRECTD31*
21,1,2.0000,0.7000,0,0,90.0*
21,1,1.3000,1.4000,0,0,90.0*
1,1,0.7000,0.3500,0.6500*
1,1,0.7000,0.3500,-0.6500*
1,1,0.7000,-0.3500,-0.6500*
1,1,0.7000,-0.3500,0.6500*
%
%ADD31ROUNDEDRECTD31*%
%ADD32R,0.5000X0.4500*%
G04:AMPARAMS|DCode=33|XSize=0.7mm|YSize=0.85mm|CornerRadius=0.175mm|HoleSize=0mm|Usage=FLASHONLY|Rotation=0.000|XOffset=0mm|YOffset=0mm|HoleType=Round|Shape=RoundedRectangle|*
%AMROUNDEDRECTD33*
21,1,0.7000,0.5000,0,0,0.0*
21,1,0.3500,0.8500,0,0,0.0*
1,1,0.3500,0.1750,-0.2500*
1,1,0.3500,-0.1750,-0.2500*
1,1,0.3500,-0.1750,0.2500*
1,1,0.3500,0.1750,0.2500*
%
%ADD33ROUNDEDRECTD33*%
%ADD34R,1.0000X3.2000*%
%ADD35R,0.8000X1.2000*%
%ADD36R,0.7600X1.2000*%
%ADD37R,0.7000X1.2000*%
%ADD38R,3.2000X1.0000*%
%ADD39R,0.8000X0.8000*%
G04:AMPARAMS|DCode=40|XSize=0.8mm|YSize=0.8mm|CornerRadius=0.2mm|HoleSize=0mm|Usage=FLASHONLY|Rotation=90.000|XOffset=0mm|YOffset=0mm|HoleType=Round|Shape=RoundedRectangle|*
%AMROUNDEDRECTD40*
21,1,0.8000,0.4000,0,0,90.0*
21,1,0.4000,0.8000,0,0,90.0*
1,1,0.4000,0.2000,0.2000*
1,1,0.4000,0.2000,-0.2000*
1,1,0.4000,-0.2000,-0.2000*
1,1,0.4000,-0.2000,0.2000*
%
%ADD40ROUNDEDRECTD40*%
G04:AMPARAMS|DCode=41|XSize=0.9mm|YSize=0.9mm|CornerRadius=0.225mm|HoleSize=0mm|Usage=FLASHONLY|Rotation=270.000|XOffset=0mm|YOffset=0mm|HoleType=Round|Shape=RoundedRectangle|*
%AMROUNDEDRECTD41*
21,1,0.9000,0.4500,0,0,270.0*
21,1,0.4500,0.9000,0,0,270.0*
1,1,0.4500,-0.2250,-0.2250*
1,1,0.4500,-0.2250,0.2250*
1,1,0.4500,0.2250,0.2250*
1,1,0.4500,0.2250,-0.2250*
%
%ADD41ROUNDEDRECTD41*%
G04:AMPARAMS|DCode=42|XSize=2.794mm|YSize=0.7366mm|CornerRadius=0.1842mm|HoleSize=0mm|Usage=FLASHONLY|Rotation=0.000|XOffset=0mm|YOffset=0mm|HoleType=Round|Shape=RoundedRectangle|*
%AMROUNDEDRECTD42*
21,1,2.7940,0.3683,0,0,0.0*
21,1,2.4257,0.7366,0,0,0.0*
1,1,0.3683,1.2129,-0.1842*
1,1,0.3683,-1.2129,-0.1842*
1,1,0.3683,-1.2129,0.1842*
1,1,0.3683,1.2129,0.1842*
%
%ADD42ROUNDEDRECTD42*%
%ADD43R,8.4074X1.0160*%
%ADD44R,0.9906X19.8628*%
%ADD45R,0.4000X0.5000*%
G04:AMPARAMS|DCode=46|XSize=0.5mm|YSize=0.4mm|CornerRadius=0.1mm|HoleSize=0mm|Usage=FLASHONLY|Rotation=270.000|XOffset=0mm|YOffset=0mm|HoleType=Round|Shape=RoundedRectangle|*
%AMROUNDEDRECTD46*
21,1,0.5000,0.2000,0,0,270.0*
21,1,0.3000,0.4000,0,0,270.0*
1,1,0.2000,-0.1000,-0.1500*
1,1,0.2000,-0.1000,0.1500*
1,1,0.2000,0.1000,0.1500*
1,1,0.2000,0.1000,-0.1500*
%
%ADD46ROUNDEDRECTD46*%
%ADD47R,1.4000X1.1000*%
G04:AMPARAMS|DCode=48|XSize=0.5mm|YSize=0.4mm|CornerRadius=0.1mm|HoleSize=0mm|Usage=FLASHONLY|Rotation=180.000|XOffset=0mm|YOffset=0mm|HoleType=Round|Shape=RoundedRectangle|*
%AMROUNDEDRECTD48*
21,1,0.5000,0.2000,0,0,180.0*
21,1,0.3000,0.4000,0,0,180.0*
1,1,0.2000,-0.1500,0.1000*
1,1,0.2000,0.1500,0.1000*
1,1,0.2000,0.1500,-0.1000*
1,1,0.2000,-0.1500,-0.1000*
%
%ADD48ROUNDEDRECTD48*%
%ADD49R,0.5000X0.4000*%
G04:AMPARAMS|DCode=51|XSize=0.24mm|YSize=0.6mm|CornerRadius=0.06mm|HoleSize=0mm|Usage=FLASHONLY|Rotation=270.000|XOffset=0mm|YOffset=0mm|HoleType=Round|Shape=RoundedRectangle|*
%AMROUNDEDRECTD51*
21,1,0.2400,0.4800,0,0,270.0*
21,1,0.1200,0.6000,0,0,270.0*
1,1,0.1200,-0.2400,-0.0600*
1,1,0.1200,-0.2400,0.0600*
1,1,0.1200,0.2400,0.0600*
1,1,0.1200,0.2400,-0.0600*
%
%ADD51ROUNDEDRECTD51*%
G04:AMPARAMS|DCode=52|XSize=0.24mm|YSize=0.6mm|CornerRadius=0.06mm|HoleSize=0mm|Usage=FLASHONLY|Rotation=0.000|XOffset=0mm|YOffset=0mm|HoleType=Round|Shape=RoundedRectangle|*
%AMROUNDEDRECTD52*
21,1,0.2400,0.4800,0,0,0.0*
21,1,0.1200,0.6000,0,0,0.0*
1,1,0.1200,0.0600,-0.2400*
1,1,0.1200,-0.0600,-0.2400*
1,1,0.1200,-0.0600,0.2400*
1,1,0.1200,0.0600,0.2400*
%
%ADD52ROUNDEDRECTD52*%
G04:AMPARAMS|DCode=53|XSize=0.24mm|YSize=0.6mm|CornerRadius=0.06mm|HoleSize=0mm|Usage=FLASHONLY|Rotation=270.000|XOffset=0mm|YOffset=0mm|HoleType=Round|Shape=RoundedRectangle|*
%AMROUNDEDRECTD53*
21,1,0.2400,0.4800,0,0,270.0*
21,1,0.1200,0.6000,0,0,270.0*
1,1,0.1200,-0.2400,-0.0600*
1,1,0.1200,-0.2400,0.0600*
1,1,0.1200,0.2400,0.0600*
1,1,0.1200,0.2400,-0.0600*
%
%ADD53ROUNDEDRECTD53*%
%ADD54R,0.2400X0.6000*%
%ADD55R,0.5600X0.9500*%
%ADD56C,4.0000*%
G04:AMPARAMS|DCode=57|XSize=0.55mm|YSize=1.05mm|CornerRadius=0.1375mm|HoleSize=0mm|Usage=FLASHONLY|Rotation=90.000|XOffset=0mm|YOffset=0mm|HoleType=Round|Shape=RoundedRectangle|*
%AMROUNDEDRECTD57*
21,1,0.5500,0.7750,0,0,90.0*
21,1,0.2750,1.0500,0,0,90.0*
1,1,0.2750,0.3875,0.1375*
1,1,0.2750,0.3875,-0.1375*
1,1,0.2750,-0.3875,-0.1375*
1,1,0.2750,-0.3875,0.1375*
%
%ADD57ROUNDEDRECTD57*%
%ADD58R,1.0500X0.5500*%
%ADD59R,0.8500X0.4500*%
G04:AMPARAMS|DCode=60|XSize=0.45mm|YSize=0.85mm|CornerRadius=0.1125mm|HoleSize=0mm|Usage=FLASHONLY|Rotation=90.000|XOffset=0mm|YOffset=0mm|HoleType=Round|Shape=RoundedRectangle|*
%AMROUNDEDRECTD60*
21,1,0.4500,0.6250,0,0,90.0*
21,1,0.2250,0.8500,0,0,90.0*
1,1,0.2250,0.3125,0.1125*
1,1,0.2250,0.3125,-0.1125*
1,1,0.2250,-0.3125,-0.1125*
1,1,0.2250,-0.3125,0.1125*
%
%ADD60ROUNDEDRECTD60*%
%ADD61R,1.6000X2.5000*%
%ADD62R,0.3000X0.3000*%
%ADD63R,0.3000X0.3000*%
%ADD112R,4.4500X4.4500*%
%ADD113R,2.0500X2.0500*%
%ADD122C,1.5240*%
%ADD123C,4.5720*%
%ADD124O,1.0000X1.6000*%
%ADD125C,1.5080*%
%ADD126R,1.5080X1.5080*%
%ADD127C,1.6000*%
%ADD128R,1.6000X1.6000*%
D21*
X510540Y230730D02*
D03*
Y252730D02*
D03*
D22*
X521810Y821690D02*
D03*
X501810D02*
D03*
X323756Y785114D02*
D03*
X343756D02*
D03*
X456090Y788162D02*
D03*
X476090D02*
D03*
X304452Y904494D02*
D03*
X324452D02*
D03*
X324198Y885952D02*
D03*
X304198D02*
D03*
X343756Y752856D02*
D03*
X323756D02*
D03*
X343756Y768604D02*
D03*
X323756D02*
D03*
X504096Y788670D02*
D03*
X524096D02*
D03*
X475836Y821182D02*
D03*
X455836D02*
D03*
X483776Y765810D02*
D03*
X503776D02*
D03*
X74770Y345440D02*
D03*
X54770D02*
D03*
Y363220D02*
D03*
X74770D02*
D03*
X569120Y612140D02*
D03*
X589120D02*
D03*
X605630Y531876D02*
D03*
X585630D02*
D03*
X74770Y72390D02*
D03*
X54770D02*
D03*
X580230Y267970D02*
D03*
X560230D02*
D03*
X580230Y248920D02*
D03*
X560230D02*
D03*
X503776Y750570D02*
D03*
X483776D02*
D03*
X501810Y837184D02*
D03*
X521810D02*
D03*
X456090Y836930D02*
D03*
X476090D02*
D03*
D23*
X723900Y935610D02*
D03*
Y951610D02*
D03*
X599440Y315850D02*
D03*
Y331850D02*
D03*
X562610Y545720D02*
D03*
Y561720D02*
D03*
X102870Y103760D02*
D03*
Y119760D02*
D03*
X469900Y19940D02*
D03*
Y35940D02*
D03*
D24*
X420490Y782388D02*
D03*
X416490Y841088D02*
D03*
X412490D02*
D03*
X408490D02*
D03*
X404490D02*
D03*
X400490D02*
D03*
X396490D02*
D03*
X392491D02*
D03*
X388490D02*
D03*
X384491D02*
D03*
X380490D02*
D03*
X376491D02*
D03*
Y782388D02*
D03*
X380490D02*
D03*
X384491D02*
D03*
X388490D02*
D03*
X392491D02*
D03*
X396490D02*
D03*
X400490D02*
D03*
X408490D02*
D03*
X412490D02*
D03*
X416490D02*
D03*
X404490D02*
D03*
D25*
X420490Y841088D02*
D03*
D26*
X369140Y833738D02*
D03*
Y829738D02*
D03*
Y825738D02*
D03*
Y821738D02*
D03*
Y817738D02*
D03*
Y813738D02*
D03*
Y809738D02*
D03*
Y805738D02*
D03*
Y801738D02*
D03*
Y797738D02*
D03*
Y793738D02*
D03*
Y789738D02*
D03*
X427841D02*
D03*
Y793738D02*
D03*
Y797738D02*
D03*
Y801738D02*
D03*
Y805738D02*
D03*
Y809738D02*
D03*
Y813738D02*
D03*
Y817738D02*
D03*
Y821738D02*
D03*
Y825738D02*
D03*
Y829738D02*
D03*
Y833738D02*
D03*
D27*
X700278Y931578D02*
D03*
Y951578D02*
D03*
X427492Y745330D02*
D03*
Y725330D02*
D03*
X25146Y284386D02*
D03*
Y304386D02*
D03*
X496570Y333342D02*
D03*
Y313342D02*
D03*
X461010Y324960D02*
D03*
Y304960D02*
D03*
X476758Y209616D02*
D03*
Y229616D02*
D03*
X443992Y714408D02*
D03*
Y734408D02*
D03*
D28*
X851916Y495554D02*
D03*
Y114554D02*
D03*
D29*
X340736Y923798D02*
D03*
X324236D02*
D03*
X307472Y736600D02*
D03*
X323972D02*
D03*
D30*
X677672Y951650D02*
D03*
Y940650D02*
D03*
D31*
X588310Y208788D02*
D03*
X562310D02*
D03*
D32*
X698588Y415544D02*
D03*
X709588D02*
D03*
D33*
X528066Y584068D02*
D03*
Y567568D02*
D03*
D34*
X443914Y759460D02*
D03*
X465914D02*
D03*
D35*
X581064Y57342D02*
D03*
X636064D02*
D03*
D36*
X593364D02*
D03*
X623764D02*
D03*
D37*
X603564D02*
D03*
X613564D02*
D03*
D38*
X509270Y277544D02*
D03*
Y299544D02*
D03*
D39*
X208626Y472425D02*
D03*
X422022Y175768D02*
D03*
D40*
X224626Y472425D02*
D03*
X438022Y175768D02*
D03*
D41*
X190336Y471155D02*
D03*
X174336D02*
D03*
X624460Y576580D02*
D03*
X640460D02*
D03*
X658115Y721233D02*
D03*
X674115D02*
D03*
X658115Y678815D02*
D03*
X674115D02*
D03*
X605410Y613410D02*
D03*
X621410D02*
D03*
X585850Y971550D02*
D03*
X569850D02*
D03*
X344550Y265430D02*
D03*
X328550D02*
D03*
X133730Y323850D02*
D03*
X117730D02*
D03*
X133730Y299720D02*
D03*
X117730D02*
D03*
X328550Y281940D02*
D03*
X344550D02*
D03*
X71500Y144780D02*
D03*
X55500D02*
D03*
X582550Y111760D02*
D03*
X598550D02*
D03*
X582550Y127000D02*
D03*
X598550D02*
D03*
X344550Y232410D02*
D03*
X328550D02*
D03*
X344550Y248920D02*
D03*
X328550D02*
D03*
X344550Y199390D02*
D03*
X328550D02*
D03*
X133730Y271780D02*
D03*
X117730D02*
D03*
X91820Y242570D02*
D03*
X75820D02*
D03*
X344550Y182880D02*
D03*
X328550D02*
D03*
X344550Y215900D02*
D03*
X328550D02*
D03*
X466470Y176276D02*
D03*
X450470D02*
D03*
D42*
X110998Y593344D02*
D03*
X151638D02*
D03*
X110998Y580644D02*
D03*
X151638D02*
D03*
X110998Y567944D02*
D03*
X151638D02*
D03*
X110998Y555244D02*
D03*
X151638D02*
D03*
X110998Y542544D02*
D03*
X151638D02*
D03*
D43*
X56007Y821690D02*
D03*
Y783844D02*
D03*
D44*
X10033Y878078D02*
D03*
D45*
X138019Y821753D02*
D03*
X163293D02*
D03*
X171293D02*
D03*
D46*
X130019D02*
D03*
D47*
X410761Y904097D02*
D03*
X388760D02*
D03*
X388756Y888099D02*
D03*
X410756D02*
D03*
D48*
X150435Y829753D02*
D03*
X183585Y829753D02*
D03*
D49*
X150435Y821753D02*
D03*
X183585Y821753D02*
D03*
D51*
X482590Y272890D02*
D03*
Y267890D02*
D03*
Y262890D02*
D03*
Y257890D02*
D03*
Y252890D02*
D03*
X449590D02*
D03*
Y262890D02*
D03*
Y267890D02*
D03*
Y272890D02*
D03*
D52*
X476090Y246390D02*
D03*
X471090D02*
D03*
X466090D02*
D03*
X461090D02*
D03*
X456090D02*
D03*
Y279390D02*
D03*
X461090D02*
D03*
X466090D02*
D03*
X471090D02*
D03*
D53*
X449590Y257890D02*
D03*
D54*
X476090Y279390D02*
D03*
D55*
X657200Y392020D02*
D03*
X638200D02*
D03*
X647700Y372520D02*
D03*
Y276450D02*
D03*
X657200Y256950D02*
D03*
X638200D02*
D03*
D56*
X850900Y574040D02*
D03*
Y934040D02*
D03*
D57*
X75610Y317100D02*
D03*
Y304600D02*
D03*
Y292100D02*
D03*
Y279600D02*
D03*
X54610D02*
D03*
Y292100D02*
D03*
Y304600D02*
D03*
D58*
Y317100D02*
D03*
D59*
X55350Y119220D02*
D03*
D60*
Y109220D02*
D03*
Y99220D02*
D03*
X84350D02*
D03*
Y109220D02*
D03*
Y119220D02*
D03*
D61*
X69850Y109220D02*
D03*
D62*
X596900Y553720D02*
D03*
X591900D02*
D03*
X586900D02*
D03*
Y585220D02*
D03*
X591900D02*
D03*
X596900D02*
D03*
X601900D02*
D03*
Y553720D02*
D03*
D63*
X583900Y561970D02*
D03*
Y566970D02*
D03*
Y571970D02*
D03*
Y576970D02*
D03*
X604900D02*
D03*
Y571970D02*
D03*
Y566970D02*
D03*
Y561970D02*
D03*
D112*
X398490Y811738D02*
D03*
D113*
X466090Y262890D02*
D03*
D122*
X638175Y680085D02*
D03*
X165608Y272034D02*
D03*
X246380Y485140D02*
D03*
X67818Y580644D02*
D03*
Y555244D02*
D03*
Y529844D02*
D03*
X156974Y243025D02*
D03*
X190500Y529082D02*
D03*
Y580390D02*
D03*
Y554990D02*
D03*
X639614Y722545D02*
D03*
X622300Y323850D02*
D03*
X647700D02*
D03*
X421640Y27940D02*
D03*
X447040D02*
D03*
D123*
X939800Y50800D02*
D03*
X502920Y934212D02*
D03*
Y460248D02*
D03*
X256286Y123444D02*
D03*
D124*
X565364Y56542D02*
D03*
Y18542D02*
D03*
X651764D02*
D03*
Y56542D02*
D03*
D125*
X585470Y952500D02*
D03*
X650470D02*
D03*
X585470Y907500D02*
D03*
D126*
X650470D02*
D03*
D127*
X240030Y26670D02*
D03*
X214630D02*
D03*
D128*
X189230D02*
D03*
M02*
