G04*
G04 #@! TF.GenerationSoftware,Altium Limited,Altium Designer,24.1.2 (44)*
G04*
G04 Layer_Color=255*
%FSLAX44Y44*%
%MOMM*%
G71*
G04*
G04 #@! TF.SameCoordinates,E8B3DE28-F026-41F4-99A8-411043518BE1*
G04*
G04*
G04 #@! TF.FilePolarity,Positive*
G04*
G01*
G75*
%ADD122C,1.5240*%
%ADD123C,4.5720*%
%ADD124O,1.0000X1.6000*%
%ADD125C,1.5080*%
%ADD126R,1.5080X1.5080*%
%ADD127C,1.6000*%
%ADD128R,1.6000X1.6000*%
D122*
X638175Y680085D02*
D03*
X165608Y272034D02*
D03*
X246380Y485140D02*
D03*
X67818Y580644D02*
D03*
Y555244D02*
D03*
Y529844D02*
D03*
X156974Y243025D02*
D03*
X190500Y529082D02*
D03*
Y580390D02*
D03*
Y554990D02*
D03*
X639614Y722545D02*
D03*
X622300Y323850D02*
D03*
X647700D02*
D03*
X421640Y27940D02*
D03*
X447040D02*
D03*
D123*
X939800Y50800D02*
D03*
X502920Y934212D02*
D03*
Y460248D02*
D03*
X256286Y123444D02*
D03*
D124*
X565364Y56542D02*
D03*
Y18542D02*
D03*
X651764D02*
D03*
Y56542D02*
D03*
D125*
X585470Y952500D02*
D03*
X650470D02*
D03*
X585470Y907500D02*
D03*
D126*
X650470D02*
D03*
D127*
X240030Y26670D02*
D03*
X214630D02*
D03*
D128*
X189230D02*
D03*
M02*
