G04*
G04 #@! TF.GenerationSoftware,Altium Limited,Altium Designer,24.1.2 (44)*
G04*
G04 Layer_Color=65535*
%FSLAX44Y44*%
%MOMM*%
G71*
G04*
G04 #@! TF.SameCoordinates,E5ABD8C9-A6BE-45F1-A99E-A3D257ADB282*
G04*
G04*
G04 #@! TF.FilePolarity,Positive*
G04*
G01*
G75*
%ADD10C,0.2500*%
%ADD11C,0.1000*%
%ADD12C,0.3000*%
%ADD13C,0.2000*%
%ADD14C,1.0000*%
%ADD15C,0.2540*%
%ADD16C,0.1270*%
%ADD17C,0.1778*%
D10*
X430241Y850238D02*
G03*
X430241Y850238I-1250J0D01*
G01*
X477590Y289390D02*
G03*
X477590Y289390I-1250J0D01*
G01*
X666750Y392020D02*
G03*
X666750Y392020I-1250J0D01*
G01*
X631150Y256950D02*
G03*
X631150Y256950I-1250J0D01*
G01*
X43360Y323350D02*
G03*
X43360Y323350I-1250J0D01*
G01*
X48100Y124220D02*
G03*
X48100Y124220I-1250J0D01*
G01*
X617150Y550720D02*
G03*
X617150Y550720I-1250J0D01*
G01*
D11*
X683422Y953150D02*
G03*
X683422Y953150I-500J0D01*
G01*
X697588Y420794D02*
G03*
X697588Y420794I-500J0D01*
G01*
X206126Y479425D02*
G03*
X206126Y479425I-500J0D01*
G01*
X419522Y182768D02*
G03*
X419522Y182768I-500J0D01*
G01*
D12*
X87882Y599025D02*
G03*
X87751Y599031I0J1500D01*
G01*
D13*
X651470Y889960D02*
G03*
X651470Y889960I-1000J0D01*
G01*
X510810Y816440D02*
X512810D01*
X510810Y826940D02*
X512810D01*
X366491Y838838D02*
Y843738D01*
X371391D01*
X366491Y779738D02*
Y784638D01*
Y779738D02*
X371391D01*
X425590D02*
X430490D01*
Y784638D01*
Y838838D02*
Y843738D01*
X425590D02*
X430490D01*
X695028Y940578D02*
Y942578D01*
X705528Y940578D02*
Y942578D01*
X432742Y734330D02*
Y736330D01*
X422242Y734330D02*
Y736330D01*
X332756Y790364D02*
X334756D01*
X332756Y779864D02*
X334756D01*
X465090Y793412D02*
X467090D01*
X465090Y782912D02*
X467090D01*
X563864Y-7458D02*
Y4042D01*
Y-7458D02*
X653264D01*
Y4042D01*
X313452Y909744D02*
X315452D01*
X313452Y899244D02*
X315452D01*
X313198Y880702D02*
X315198D01*
X313198Y891202D02*
X315198D01*
X398761Y900597D02*
X400761D01*
X398761Y891597D02*
X400761D01*
X254630Y13970D02*
Y39370D01*
X174630Y13970D02*
X254630D01*
X174630D02*
Y39370D01*
X254630D01*
X446340Y278090D02*
Y282640D01*
X450890D01*
X446340Y243140D02*
Y247690D01*
Y243140D02*
X450890D01*
X481290D02*
X485840D01*
Y247690D01*
Y278090D02*
Y282640D01*
X481290D02*
X485840D01*
X662700Y375270D02*
Y385270D01*
X654500Y375270D02*
X662700D01*
X632700D02*
Y385270D01*
Y375270D02*
X640900D01*
X332756Y747606D02*
X334756D01*
X332756Y758106D02*
X334756D01*
X332756Y763354D02*
X334756D01*
X332756Y773854D02*
X334756D01*
X513096Y793920D02*
X515096D01*
X513096Y783420D02*
X515096D01*
X464836Y815932D02*
X466836D01*
X464836Y826432D02*
X466836D01*
X492776Y771060D02*
X494776D01*
X492776Y760560D02*
X494776D01*
X654500Y273700D02*
X662700D01*
Y263700D02*
Y273700D01*
X632700D02*
X640900D01*
X632700Y263700D02*
Y273700D01*
X48610Y271850D02*
X58360D01*
X48610D02*
Y272850D01*
X71860Y271850D02*
X81610D01*
Y272850D01*
Y323850D02*
Y324850D01*
X71860D02*
X81610D01*
X48610D02*
X58360D01*
X48610Y323850D02*
Y324850D01*
X53350Y125470D02*
Y125720D01*
X68600D01*
X71100D02*
X86350D01*
Y125470D02*
Y125720D01*
Y92720D02*
Y92970D01*
X71100Y92720D02*
X86350D01*
X53350D02*
Y92970D01*
Y92720D02*
X68600D01*
X607400Y589720D02*
X609400D01*
Y582470D02*
Y589720D01*
X579400D02*
X581400D01*
X579400Y582470D02*
Y589720D01*
Y549220D02*
Y556470D01*
Y549220D02*
X581400D01*
X607400D02*
X609400D01*
Y556470D01*
X63770Y340190D02*
X65770D01*
X63770Y350690D02*
X65770D01*
X63770Y368470D02*
X65770D01*
X63770Y357970D02*
X65770D01*
X19896Y293386D02*
Y295386D01*
X30396Y293386D02*
Y295386D01*
X578120Y617390D02*
X580120D01*
X578120Y606890D02*
X580120D01*
X594630Y526626D02*
X596630D01*
X594630Y537126D02*
X596630D01*
X63770Y67140D02*
X65770D01*
X63770Y77640D02*
X65770D01*
X569230Y262720D02*
X571230D01*
X569230Y273220D02*
X571230D01*
X569230Y243670D02*
X571230D01*
X569230Y254170D02*
X571230D01*
X501820Y322342D02*
Y324342D01*
X491320Y322342D02*
Y324342D01*
X466260Y313960D02*
Y315960D01*
X455760Y313960D02*
Y315960D01*
X471508Y218616D02*
Y220616D01*
X482008Y218616D02*
Y220616D01*
X492776Y745320D02*
X494776D01*
X492776Y755820D02*
X494776D01*
X510810Y842434D02*
X512810D01*
X510810Y831934D02*
X512810D01*
X465090Y842180D02*
X467090D01*
X465090Y831680D02*
X467090D01*
X438742Y723408D02*
Y725408D01*
X449242Y723408D02*
Y725408D01*
D14*
X766896Y471564D02*
Y496564D01*
X791896D01*
X766896D02*
Y521564D01*
X741896Y496564D02*
X766896D01*
D15*
X215834Y472425D02*
X217388D01*
Y476235D01*
Y468615D02*
Y476235D01*
X169418Y531114D02*
Y604774D01*
X93218Y531114D02*
X169418D01*
X93218D02*
Y604774D01*
X169418D01*
X609600Y311150D02*
X660400D01*
Y336550D01*
X609600D02*
X660400D01*
X609600Y311150D02*
Y336550D01*
X429230Y175768D02*
X430784D01*
Y179578D01*
Y171958D02*
Y179578D01*
X459740Y15240D02*
Y40640D01*
X408940Y15240D02*
X459740D01*
X408940D02*
Y40640D01*
X459740D01*
D16*
X647970Y918240D02*
Y941760D01*
X596210Y960000D02*
X639730D01*
X587970Y918240D02*
Y941760D01*
X596210Y900000D02*
X639730D01*
D17*
X536576Y824229D02*
X535307Y825499D01*
X532768D01*
X531498Y824229D01*
Y819151D01*
X532768Y817881D01*
X535307D01*
X536576Y819151D01*
X539116Y817881D02*
X541655D01*
X540385D01*
Y825499D01*
X539116Y824229D01*
X545464D02*
X546733Y825499D01*
X549272D01*
X550542Y824229D01*
Y822960D01*
X549272Y821690D01*
X550542Y820420D01*
Y819151D01*
X549272Y817881D01*
X546733D01*
X545464Y819151D01*
Y820420D01*
X546733Y821690D01*
X545464Y822960D01*
Y824229D01*
X546733Y821690D02*
X549272D01*
X720091Y925827D02*
X727709D01*
Y922018D01*
X726439Y920749D01*
X723900D01*
X722630Y922018D01*
Y925827D01*
Y923288D02*
X720091Y920749D01*
Y913131D02*
Y918210D01*
X725170Y913131D01*
X726439D01*
X727709Y914401D01*
Y916940D01*
X726439Y918210D01*
X720091Y910592D02*
Y908053D01*
Y909322D01*
X727709D01*
X726439Y910592D01*
X929135Y78741D02*
Y86359D01*
X931674Y83820D01*
X934214Y86359D01*
Y78741D01*
X936753Y86359D02*
Y78741D01*
Y82550D01*
X941831D01*
Y86359D01*
Y78741D01*
X948179D02*
Y86359D01*
X944370Y82550D01*
X949449D01*
X234188Y154178D02*
Y161796D01*
X236727Y159256D01*
X239266Y161796D01*
Y154178D01*
X241805Y161796D02*
Y154178D01*
Y157987D01*
X246884D01*
Y161796D01*
Y154178D01*
X249423Y160526D02*
X250693Y161796D01*
X253232D01*
X254501Y160526D01*
Y159256D01*
X253232Y157987D01*
X251962D01*
X253232D01*
X254501Y156717D01*
Y155448D01*
X253232Y154178D01*
X250693D01*
X249423Y155448D01*
X465836Y490982D02*
Y498600D01*
X468375Y496060D01*
X470914Y498600D01*
Y490982D01*
X473453Y498600D02*
Y490982D01*
Y494791D01*
X478532D01*
Y498600D01*
Y490982D01*
X486149D02*
X481071D01*
X486149Y496060D01*
Y497330D01*
X484880Y498600D01*
X482341D01*
X481071Y497330D01*
X477266Y964946D02*
Y972563D01*
X479805Y970024D01*
X482344Y972563D01*
Y964946D01*
X484883Y972563D02*
Y964946D01*
Y968755D01*
X489962D01*
Y972563D01*
Y964946D01*
X492501D02*
X495040D01*
X493771D01*
Y972563D01*
X492501Y971294D01*
X284736Y739139D02*
X279657D01*
Y735330D01*
X282197D01*
X279657D01*
Y731521D01*
X287275Y739139D02*
Y731521D01*
X291084D01*
X292353Y732791D01*
Y734060D01*
X291084Y735330D01*
X287275D01*
X291084D01*
X292353Y736600D01*
Y737869D01*
X291084Y739139D01*
X287275D01*
X294892Y737869D02*
X296162Y739139D01*
X298701D01*
X299971Y737869D01*
Y736600D01*
X298701Y735330D01*
X297432D01*
X298701D01*
X299971Y734060D01*
Y732791D01*
X298701Y731521D01*
X296162D01*
X294892Y732791D01*
X300230Y928115D02*
X295151D01*
Y924306D01*
X297691D01*
X295151D01*
Y920497D01*
X302769Y928115D02*
Y920497D01*
X306578D01*
X307847Y921767D01*
Y923036D01*
X306578Y924306D01*
X302769D01*
X306578D01*
X307847Y925576D01*
Y926845D01*
X306578Y928115D01*
X302769D01*
X315465Y920497D02*
X310386D01*
X315465Y925576D01*
Y926845D01*
X314195Y928115D01*
X311656D01*
X310386Y926845D01*
X541021Y581151D02*
X535943D01*
Y577342D01*
X538482D01*
X535943D01*
Y573533D01*
X543560Y581151D02*
Y573533D01*
X547369D01*
X548639Y574803D01*
Y576072D01*
X547369Y577342D01*
X543560D01*
X547369D01*
X548639Y578612D01*
Y579881D01*
X547369Y581151D01*
X543560D01*
X551178Y573533D02*
X553717D01*
X552448D01*
Y581151D01*
X551178Y579881D01*
X632714Y745742D02*
X637792D01*
X635253D01*
Y738124D01*
X640331D02*
Y745742D01*
X644140D01*
X645410Y744472D01*
Y741933D01*
X644140Y740663D01*
X640331D01*
X647949Y738124D02*
X650488D01*
X649219D01*
Y745742D01*
X647949Y744472D01*
X659375Y738124D02*
X654297D01*
X659375Y743202D01*
Y744472D01*
X658106Y745742D01*
X655567D01*
X654297Y744472D01*
X599571Y692657D02*
X604649D01*
X602110D01*
Y685039D01*
X607188D02*
Y692657D01*
X610997D01*
X612267Y691387D01*
Y688848D01*
X610997Y687578D01*
X607188D01*
X614806Y685039D02*
X617345D01*
X616076D01*
Y692657D01*
X614806Y691387D01*
X621154Y685039D02*
X623693D01*
X622424D01*
Y692657D01*
X621154Y691387D01*
X176153Y246887D02*
X181232D01*
X178692D01*
Y239269D01*
X183771D02*
Y246887D01*
X187580D01*
X188849Y245617D01*
Y243078D01*
X187580Y241808D01*
X183771D01*
X191388Y239269D02*
X193928D01*
X192658D01*
Y246887D01*
X191388Y245617D01*
X197736D02*
X199006Y246887D01*
X201545D01*
X202815Y245617D01*
Y240539D01*
X201545Y239269D01*
X199006D01*
X197736Y240539D01*
Y245617D01*
X182121Y278383D02*
X187200D01*
X184660D01*
Y270765D01*
X189739D02*
Y278383D01*
X193548D01*
X194817Y277113D01*
Y274574D01*
X193548Y273304D01*
X189739D01*
X197356Y272035D02*
X198626Y270765D01*
X201165D01*
X202435Y272035D01*
Y277113D01*
X201165Y278383D01*
X198626D01*
X197356Y277113D01*
Y275844D01*
X198626Y274574D01*
X202435D01*
X216665Y538987D02*
X221744D01*
X219205D01*
Y531369D01*
X224283D02*
Y538987D01*
X228092D01*
X229361Y537717D01*
Y535178D01*
X228092Y533908D01*
X224283D01*
X231900Y537717D02*
X233170Y538987D01*
X235709D01*
X236979Y537717D01*
Y536448D01*
X235709Y535178D01*
X236979Y533908D01*
Y532639D01*
X235709Y531369D01*
X233170D01*
X231900Y532639D01*
Y533908D01*
X233170Y535178D01*
X231900Y536448D01*
Y537717D01*
X233170Y535178D02*
X235709D01*
X245621Y505713D02*
X250700D01*
X248160D01*
Y498095D01*
X253239D02*
Y505713D01*
X257048D01*
X258317Y504443D01*
Y501904D01*
X257048Y500634D01*
X253239D01*
X260856Y505713D02*
X265935D01*
Y504443D01*
X260856Y499365D01*
Y498095D01*
X23879Y532637D02*
X28958D01*
X26418D01*
Y525019D01*
X31497D02*
Y532637D01*
X35306D01*
X36575Y531367D01*
Y528828D01*
X35306Y527558D01*
X31497D01*
X44193Y532637D02*
X41654Y531367D01*
X39114Y528828D01*
Y526289D01*
X40384Y525019D01*
X42923D01*
X44193Y526289D01*
Y527558D01*
X42923Y528828D01*
X39114D01*
X220729Y560577D02*
X225808D01*
X223269D01*
Y552959D01*
X228347D02*
Y560577D01*
X232156D01*
X233425Y559307D01*
Y556768D01*
X232156Y555498D01*
X228347D01*
X241043Y560577D02*
X235964D01*
Y556768D01*
X238504Y558038D01*
X239773D01*
X241043Y556768D01*
Y554229D01*
X239773Y552959D01*
X237234D01*
X235964Y554229D01*
X23625Y559815D02*
X28704D01*
X26165D01*
Y552197D01*
X31243D02*
Y559815D01*
X35052D01*
X36321Y558545D01*
Y556006D01*
X35052Y554736D01*
X31243D01*
X42669Y552197D02*
Y559815D01*
X38860Y556006D01*
X43939D01*
X225301Y584199D02*
X230380D01*
X227840D01*
Y576581D01*
X232919D02*
Y584199D01*
X236728D01*
X237997Y582929D01*
Y580390D01*
X236728Y579120D01*
X232919D01*
X240536Y582929D02*
X241806Y584199D01*
X244345D01*
X245615Y582929D01*
Y581660D01*
X244345Y580390D01*
X243076D01*
X244345D01*
X245615Y579120D01*
Y577851D01*
X244345Y576581D01*
X241806D01*
X240536Y577851D01*
X22863Y583437D02*
X27942D01*
X25403D01*
Y575819D01*
X30481D02*
Y583437D01*
X34290D01*
X35559Y582167D01*
Y579628D01*
X34290Y578358D01*
X30481D01*
X43177Y575819D02*
X38098D01*
X43177Y580898D01*
Y582167D01*
X41907Y583437D01*
X39368D01*
X38098Y582167D01*
X86614Y620519D02*
Y612902D01*
Y616711D01*
X91692D01*
Y620519D01*
Y612902D01*
X94232D02*
X96771D01*
X95501D01*
Y620519D01*
X94232Y619250D01*
X516638Y220725D02*
Y213107D01*
X521716D01*
X529334D02*
X524256D01*
X529334Y218186D01*
Y219455D01*
X528064Y220725D01*
X525525D01*
X524256Y219455D01*
X653014Y81151D02*
X650475D01*
X651745D01*
Y74803D01*
X650475Y73533D01*
X649205D01*
X647936Y74803D01*
X655553Y73533D02*
X658093D01*
X656823D01*
Y81151D01*
X655553Y79881D01*
X412462Y922766D02*
X417540Y915148D01*
Y922766D02*
X412462Y915148D01*
X420080D02*
X422619D01*
X421349D01*
Y922766D01*
X420080Y921496D01*
X420844Y773129D02*
Y766781D01*
X422114Y765511D01*
X424653D01*
X425923Y766781D01*
Y773129D01*
X433540D02*
X428462D01*
Y769320D01*
X431001Y770589D01*
X432271D01*
X433540Y769320D01*
Y766781D01*
X432271Y765511D01*
X429732D01*
X428462Y766781D01*
X426722Y287019D02*
Y280671D01*
X427992Y279401D01*
X430531D01*
X431800Y280671D01*
Y287019D01*
X438148Y279401D02*
Y287019D01*
X434340Y283210D01*
X439418D01*
X91442Y90169D02*
Y83821D01*
X92712Y82551D01*
X95251D01*
X96520Y83821D01*
Y90169D01*
X99060Y88899D02*
X100329Y90169D01*
X102868D01*
X104138Y88899D01*
Y87630D01*
X102868Y86360D01*
X101599D01*
X102868D01*
X104138Y85090D01*
Y83821D01*
X102868Y82551D01*
X100329D01*
X99060Y83821D01*
X622302Y554989D02*
Y548641D01*
X623572Y547371D01*
X626111D01*
X627380Y548641D01*
Y554989D01*
X634998Y547371D02*
X629920D01*
X634998Y552450D01*
Y553719D01*
X633728Y554989D01*
X631189D01*
X629920Y553719D01*
X88902Y276859D02*
Y270511D01*
X90171Y269241D01*
X92710D01*
X93980Y270511D01*
Y276859D01*
X96519Y269241D02*
X99058D01*
X97789D01*
Y276859D01*
X96519Y275589D01*
X592474Y351154D02*
X595013D01*
X593744D01*
Y343536D01*
X592474D01*
X595013D01*
X598822D02*
Y351154D01*
X603900Y343536D01*
Y351154D01*
X606440Y343536D02*
Y351154D01*
X610248D01*
X611518Y349884D01*
Y347345D01*
X610248Y346075D01*
X606440D01*
X614057Y351154D02*
Y344806D01*
X615327Y343536D01*
X617866D01*
X619136Y344806D01*
Y351154D01*
X621675D02*
X626753D01*
X624214D01*
Y343536D01*
X629292Y342266D02*
X634370D01*
X641988Y349884D02*
X640719Y351154D01*
X638179D01*
X636910Y349884D01*
Y344806D01*
X638179Y343536D01*
X640719D01*
X641988Y344806D01*
X644527Y351154D02*
Y344806D01*
X645797Y343536D01*
X648336D01*
X649606Y344806D01*
Y351154D01*
X652145Y343536D02*
Y351154D01*
X655954D01*
X657223Y349884D01*
Y347345D01*
X655954Y346075D01*
X652145D01*
X654684D02*
X657223Y343536D01*
X659762D02*
Y351154D01*
X663571D01*
X664841Y349884D01*
Y347345D01*
X663571Y346075D01*
X659762D01*
X662301D02*
X664841Y343536D01*
X667380Y342266D02*
X672458D01*
X680076Y349884D02*
X678806Y351154D01*
X676267D01*
X674997Y349884D01*
Y348614D01*
X676267Y347345D01*
X678806D01*
X680076Y346075D01*
Y344806D01*
X678806Y343536D01*
X676267D01*
X674997Y344806D01*
X687693Y351154D02*
X682615D01*
Y343536D01*
X687693D01*
X682615Y347345D02*
X685154D01*
X690232Y343536D02*
Y351154D01*
X695311Y343536D01*
Y351154D01*
X702928Y349884D02*
X701659Y351154D01*
X699120D01*
X697850Y349884D01*
Y348614D01*
X699120Y347345D01*
X701659D01*
X702928Y346075D01*
Y344806D01*
X701659Y343536D01*
X699120D01*
X697850Y344806D01*
X710546Y351154D02*
X705468D01*
Y343536D01*
X710546D01*
X705468Y347345D02*
X708007D01*
X408958Y55244D02*
Y47626D01*
X414036D01*
X420384Y55244D02*
X417845D01*
X416576Y53974D01*
Y48896D01*
X417845Y47626D01*
X420384D01*
X421654Y48896D01*
Y53974D01*
X420384Y55244D01*
X424193Y47626D02*
Y52704D01*
X426732Y55244D01*
X429272Y52704D01*
Y47626D01*
Y51435D01*
X424193D01*
X431811Y55244D02*
Y47626D01*
X435620D01*
X436889Y48896D01*
Y53974D01*
X435620Y55244D01*
X431811D01*
X439428Y46356D02*
X444507D01*
X452124Y53974D02*
X450854Y55244D01*
X448315D01*
X447046Y53974D01*
Y48896D01*
X448315Y47626D01*
X450854D01*
X452124Y48896D01*
X454663Y55244D02*
Y48896D01*
X455933Y47626D01*
X458472D01*
X459742Y48896D01*
Y55244D01*
X462281Y47626D02*
Y55244D01*
X466090D01*
X467359Y53974D01*
Y51435D01*
X466090Y50165D01*
X462281D01*
X464820D02*
X467359Y47626D01*
X469898D02*
Y55244D01*
X473707D01*
X474977Y53974D01*
Y51435D01*
X473707Y50165D01*
X469898D01*
X472438D02*
X474977Y47626D01*
X477516Y46356D02*
X482594D01*
X490212Y53974D02*
X488942Y55244D01*
X486403D01*
X485133Y53974D01*
Y52704D01*
X486403Y51435D01*
X488942D01*
X490212Y50165D01*
Y48896D01*
X488942Y47626D01*
X486403D01*
X485133Y48896D01*
X497829Y55244D02*
X492751D01*
Y47626D01*
X497829D01*
X492751Y51435D02*
X495290D01*
X500368Y47626D02*
Y55244D01*
X505447Y47626D01*
Y55244D01*
X513064Y53974D02*
X511795Y55244D01*
X509256D01*
X507986Y53974D01*
Y52704D01*
X509256Y51435D01*
X511795D01*
X513064Y50165D01*
Y48896D01*
X511795Y47626D01*
X509256D01*
X507986Y48896D01*
X520682Y55244D02*
X515604D01*
Y47626D01*
X520682D01*
X515604Y51435D02*
X518143D01*
X581395Y893169D02*
X580126Y894439D01*
X577586D01*
X576317Y893169D01*
Y891900D01*
X577586Y890630D01*
X580126D01*
X581395Y889361D01*
Y888091D01*
X580126Y886821D01*
X577586D01*
X576317Y888091D01*
X583934Y894439D02*
Y886821D01*
X586473Y889361D01*
X589013Y886821D01*
Y894439D01*
X591552Y886821D02*
X594091D01*
X592821D01*
Y894439D01*
X591552Y893169D01*
X450853Y185167D02*
Y192785D01*
X454662D01*
X455932Y191515D01*
Y188976D01*
X454662Y187706D01*
X450853D01*
X453392D02*
X455932Y185167D01*
X463549D02*
X458471D01*
X463549Y190246D01*
Y191515D01*
X462280Y192785D01*
X459740D01*
X458471Y191515D01*
X466088Y192785D02*
X471167D01*
Y191515D01*
X466088Y186437D01*
Y185167D01*
X488949Y17783D02*
X481331D01*
Y21592D01*
X482601Y22862D01*
X485140D01*
X486410Y21592D01*
Y17783D01*
Y20322D02*
X488949Y22862D01*
Y30479D02*
Y25401D01*
X483870Y30479D01*
X482601D01*
X481331Y29210D01*
Y26670D01*
X482601Y25401D01*
X481331Y38097D02*
X482601Y35558D01*
X485140Y33018D01*
X487679D01*
X488949Y34288D01*
Y36827D01*
X487679Y38097D01*
X486410D01*
X485140Y36827D01*
Y33018D01*
X174755Y479553D02*
Y487171D01*
X178564D01*
X179834Y485901D01*
Y483362D01*
X178564Y482092D01*
X174755D01*
X177295D02*
X179834Y479553D01*
X187451D02*
X182373D01*
X187451Y484632D01*
Y485901D01*
X186182Y487171D01*
X183642D01*
X182373Y485901D01*
X195069Y487171D02*
X189990D01*
Y483362D01*
X192530Y484632D01*
X193799D01*
X195069Y483362D01*
Y480823D01*
X193799Y479553D01*
X191260D01*
X189990Y480823D01*
X354333Y212091D02*
Y219709D01*
X358142D01*
X359412Y218439D01*
Y215900D01*
X358142Y214630D01*
X354333D01*
X356872D02*
X359412Y212091D01*
X367029D02*
X361951D01*
X367029Y217170D01*
Y218439D01*
X365760Y219709D01*
X363220D01*
X361951Y218439D01*
X373377Y212091D02*
Y219709D01*
X369568Y215900D01*
X374647D01*
X355603Y179071D02*
Y186689D01*
X359412D01*
X360682Y185419D01*
Y182880D01*
X359412Y181610D01*
X355603D01*
X358143D02*
X360682Y179071D01*
X368299D02*
X363221D01*
X368299Y184150D01*
Y185419D01*
X367030Y186689D01*
X364490D01*
X363221Y185419D01*
X370838D02*
X372108Y186689D01*
X374647D01*
X375917Y185419D01*
Y184150D01*
X374647Y182880D01*
X373378D01*
X374647D01*
X375917Y181610D01*
Y180341D01*
X374647Y179071D01*
X372108D01*
X370838Y180341D01*
X595633Y966471D02*
Y974089D01*
X599442D01*
X600712Y972819D01*
Y970280D01*
X599442Y969010D01*
X595633D01*
X598172D02*
X600712Y966471D01*
X608329D02*
X603251D01*
X608329Y971550D01*
Y972819D01*
X607060Y974089D01*
X604520D01*
X603251Y972819D01*
X615947Y966471D02*
X610868D01*
X615947Y971550D01*
Y972819D01*
X614677Y974089D01*
X612138D01*
X610868Y972819D01*
X101603Y238761D02*
Y246379D01*
X105412D01*
X106682Y245109D01*
Y242570D01*
X105412Y241300D01*
X101603D01*
X104143D02*
X106682Y238761D01*
X114299D02*
X109221D01*
X114299Y243840D01*
Y245109D01*
X113030Y246379D01*
X110490D01*
X109221Y245109D01*
X116838D02*
X118108Y246379D01*
X120647D01*
X121917Y245109D01*
Y240031D01*
X120647Y238761D01*
X118108D01*
X116838Y240031D01*
Y245109D01*
X111128Y255271D02*
Y262889D01*
X114937D01*
X116206Y261619D01*
Y259080D01*
X114937Y257810D01*
X111128D01*
X113667D02*
X116206Y255271D01*
X118746D02*
X121285D01*
X120015D01*
Y262889D01*
X118746Y261619D01*
X125094Y256541D02*
X126363Y255271D01*
X128902D01*
X130172Y256541D01*
Y261619D01*
X128902Y262889D01*
X126363D01*
X125094Y261619D01*
Y260350D01*
X126363Y259080D01*
X130172D01*
X354968Y195581D02*
Y203199D01*
X358777D01*
X360046Y201929D01*
Y199390D01*
X358777Y198120D01*
X354968D01*
X357507D02*
X360046Y195581D01*
X362586D02*
X365125D01*
X363855D01*
Y203199D01*
X362586Y201929D01*
X368934D02*
X370203Y203199D01*
X372742D01*
X374012Y201929D01*
Y200660D01*
X372742Y199390D01*
X374012Y198120D01*
Y196851D01*
X372742Y195581D01*
X370203D01*
X368934Y196851D01*
Y198120D01*
X370203Y199390D01*
X368934Y200660D01*
Y201929D01*
X370203Y199390D02*
X372742D01*
X354968Y245111D02*
Y252729D01*
X358777D01*
X360046Y251459D01*
Y248920D01*
X358777Y247650D01*
X354968D01*
X357507D02*
X360046Y245111D01*
X362586D02*
X365125D01*
X363855D01*
Y252729D01*
X362586Y251459D01*
X368934Y252729D02*
X374012D01*
Y251459D01*
X368934Y246381D01*
Y245111D01*
X354968Y228601D02*
Y236219D01*
X358777D01*
X360046Y234949D01*
Y232410D01*
X358777Y231140D01*
X354968D01*
X357507D02*
X360046Y228601D01*
X362586D02*
X365125D01*
X363855D01*
Y236219D01*
X362586Y234949D01*
X374012Y236219D02*
X371473Y234949D01*
X368934Y232410D01*
Y229871D01*
X370203Y228601D01*
X372742D01*
X374012Y229871D01*
Y231140D01*
X372742Y232410D01*
X368934D01*
X553088Y123191D02*
Y130809D01*
X556897D01*
X558166Y129539D01*
Y127000D01*
X556897Y125730D01*
X553088D01*
X555627D02*
X558166Y123191D01*
X560706D02*
X563245D01*
X561975D01*
Y130809D01*
X560706Y129539D01*
X572132Y130809D02*
X567054D01*
Y127000D01*
X569593Y128270D01*
X570862D01*
X572132Y127000D01*
Y124461D01*
X570862Y123191D01*
X568323D01*
X567054Y124461D01*
X553088Y107951D02*
Y115569D01*
X556897D01*
X558166Y114299D01*
Y111760D01*
X556897Y110490D01*
X553088D01*
X555627D02*
X558166Y107951D01*
X560706D02*
X563245D01*
X561975D01*
Y115569D01*
X560706Y114299D01*
X570862Y107951D02*
Y115569D01*
X567054Y111760D01*
X572132D01*
X580391Y333372D02*
X588009D01*
Y329563D01*
X586739Y328294D01*
X584200D01*
X582930Y329563D01*
Y333372D01*
Y330833D02*
X580391Y328294D01*
Y325754D02*
Y323215D01*
Y324485D01*
X588009D01*
X586739Y325754D01*
Y319406D02*
X588009Y318137D01*
Y315598D01*
X586739Y314328D01*
X585470D01*
X584200Y315598D01*
Y316867D01*
Y315598D01*
X582930Y314328D01*
X581661D01*
X580391Y315598D01*
Y318137D01*
X581661Y319406D01*
X97282Y133858D02*
Y141475D01*
X101091D01*
X102360Y140206D01*
Y137667D01*
X101091Y136397D01*
X97282D01*
X99821D02*
X102360Y133858D01*
X104900D02*
X107439D01*
X106169D01*
Y141475D01*
X104900Y140206D01*
X116326Y133858D02*
X111248D01*
X116326Y138936D01*
Y140206D01*
X115056Y141475D01*
X112517D01*
X111248Y140206D01*
X683898Y717551D02*
Y725169D01*
X687706D01*
X688976Y723899D01*
Y721360D01*
X687706Y720090D01*
X683898D01*
X686437D02*
X688976Y717551D01*
X691515D02*
X694054D01*
X692785D01*
Y725169D01*
X691515Y723899D01*
X697863Y717551D02*
X700402D01*
X699133D01*
Y725169D01*
X697863Y723899D01*
X683898Y674371D02*
Y681989D01*
X687707D01*
X688976Y680719D01*
Y678180D01*
X687707Y676910D01*
X683898D01*
X686437D02*
X688976Y674371D01*
X691516D02*
X694055D01*
X692785D01*
Y681989D01*
X691516Y680719D01*
X697864D02*
X699133Y681989D01*
X701672D01*
X702942Y680719D01*
Y675641D01*
X701672Y674371D01*
X699133D01*
X697864Y675641D01*
Y680719D01*
X50038Y159004D02*
Y166621D01*
X53847D01*
X55116Y165352D01*
Y162813D01*
X53847Y161543D01*
X50038D01*
X52577D02*
X55116Y159004D01*
X57656Y160274D02*
X58925Y159004D01*
X61464D01*
X62734Y160274D01*
Y165352D01*
X61464Y166621D01*
X58925D01*
X57656Y165352D01*
Y164082D01*
X58925Y162813D01*
X62734D01*
X618492Y585471D02*
Y593089D01*
X622301D01*
X623570Y591819D01*
Y589280D01*
X622301Y588010D01*
X618492D01*
X621031D02*
X623570Y585471D01*
X626110Y591819D02*
X627379Y593089D01*
X629918D01*
X631188Y591819D01*
Y590550D01*
X629918Y589280D01*
X631188Y588010D01*
Y586741D01*
X629918Y585471D01*
X627379D01*
X626110Y586741D01*
Y588010D01*
X627379Y589280D01*
X626110Y590550D01*
Y591819D01*
X627379Y589280D02*
X629918D01*
X599442Y622301D02*
Y629919D01*
X603251D01*
X604520Y628649D01*
Y626110D01*
X603251Y624840D01*
X599442D01*
X601981D02*
X604520Y622301D01*
X607060Y629919D02*
X612138D01*
Y628649D01*
X607060Y623571D01*
Y622301D01*
X354332Y278131D02*
Y285749D01*
X358141D01*
X359410Y284479D01*
Y281940D01*
X358141Y280670D01*
X354332D01*
X356871D02*
X359410Y278131D01*
X367028Y285749D02*
X364489Y284479D01*
X361950Y281940D01*
Y279401D01*
X363219Y278131D01*
X365758D01*
X367028Y279401D01*
Y280670D01*
X365758Y281940D01*
X361950D01*
X143512Y295911D02*
Y303529D01*
X147321D01*
X148590Y302259D01*
Y299720D01*
X147321Y298450D01*
X143512D01*
X146051D02*
X148590Y295911D01*
X156208Y303529D02*
X151130D01*
Y299720D01*
X153669Y300990D01*
X154938D01*
X156208Y299720D01*
Y297181D01*
X154938Y295911D01*
X152399D01*
X151130Y297181D01*
X143512Y320041D02*
Y327659D01*
X147321D01*
X148590Y326389D01*
Y323850D01*
X147321Y322580D01*
X143512D01*
X146051D02*
X148590Y320041D01*
X154938D02*
Y327659D01*
X151130Y323850D01*
X156208D01*
X354332Y261621D02*
Y269239D01*
X358141D01*
X359410Y267969D01*
Y265430D01*
X358141Y264160D01*
X354332D01*
X356871D02*
X359410Y261621D01*
X361950Y267969D02*
X363219Y269239D01*
X365758D01*
X367028Y267969D01*
Y266700D01*
X365758Y265430D01*
X364489D01*
X365758D01*
X367028Y264160D01*
Y262891D01*
X365758Y261621D01*
X363219D01*
X361950Y262891D01*
X542292Y558801D02*
Y566419D01*
X546100D01*
X547370Y565149D01*
Y562610D01*
X546100Y561340D01*
X542292D01*
X544831D02*
X547370Y558801D01*
X549909D02*
X552448D01*
X551179D01*
Y566419D01*
X549909Y565149D01*
X709933Y559817D02*
Y567435D01*
X713742D01*
X715011Y566165D01*
Y563626D01*
X713742Y562356D01*
X709933D01*
X717550Y567435D02*
Y562356D01*
X720090Y559817D01*
X722629Y562356D01*
Y567435D01*
X725168Y559817D02*
X727707D01*
X726438D01*
Y567435D01*
X725168Y566165D01*
X204221Y491489D02*
Y483871D01*
X209299D01*
X216916Y491489D02*
X211838D01*
Y483871D01*
X216916D01*
X211838Y487680D02*
X214377D01*
X219456Y491489D02*
Y483871D01*
X223264D01*
X224534Y485141D01*
Y490219D01*
X223264Y491489D01*
X219456D01*
X232152Y483871D02*
X227073D01*
X232152Y488950D01*
Y490219D01*
X230882Y491489D01*
X228343D01*
X227073Y490219D01*
X419486Y166877D02*
Y159259D01*
X424565D01*
X432182Y166877D02*
X427104D01*
Y159259D01*
X432182D01*
X427104Y163068D02*
X429643D01*
X434721Y166877D02*
Y159259D01*
X438530D01*
X439799Y160529D01*
Y165607D01*
X438530Y166877D01*
X434721D01*
X442339Y159259D02*
X444878D01*
X443608D01*
Y166877D01*
X442339Y165607D01*
X127707Y834452D02*
Y826834D01*
X132785D01*
X140403Y834452D02*
X135324D01*
Y830643D01*
X137864Y831913D01*
X139133D01*
X140403Y830643D01*
Y828104D01*
X139133Y826834D01*
X136594D01*
X135324Y828104D01*
X161997Y834452D02*
Y826834D01*
X167075D01*
X173423D02*
Y834452D01*
X169615Y830643D01*
X174693D01*
X453137Y728728D02*
X460755D01*
Y733806D01*
X454407Y736346D02*
X453137Y737615D01*
Y740154D01*
X454407Y741424D01*
X455676D01*
X456946Y740154D01*
Y738885D01*
Y740154D01*
X458216Y741424D01*
X459485D01*
X460755Y740154D01*
Y737615D01*
X459485Y736346D01*
X538479Y307162D02*
X530861D01*
Y302084D01*
Y299545D02*
Y297006D01*
Y298275D01*
X538479D01*
X537209Y299545D01*
X172734Y52704D02*
Y47625D01*
X175274Y45086D01*
X177813Y47625D01*
Y52704D01*
X180352D02*
Y45086D01*
X184161D01*
X185430Y46356D01*
Y51434D01*
X184161Y52704D01*
X180352D01*
X187969D02*
Y45086D01*
X191778D01*
X193048Y46356D01*
Y51434D01*
X191778Y52704D01*
X187969D01*
X195587Y43816D02*
X200665D01*
X203204Y52704D02*
Y45086D01*
X208283D01*
X214631Y52704D02*
X212092D01*
X210822Y51434D01*
Y46356D01*
X212092Y45086D01*
X214631D01*
X215900Y46356D01*
Y51434D01*
X214631Y52704D01*
X218440Y45086D02*
Y50164D01*
X220979Y52704D01*
X223518Y50164D01*
Y45086D01*
Y48895D01*
X218440D01*
X226057Y52704D02*
Y45086D01*
X229866D01*
X231136Y46356D01*
Y51434D01*
X229866Y52704D01*
X226057D01*
X233675Y43816D02*
X238753D01*
X246371Y51434D02*
X245101Y52704D01*
X242562D01*
X241292Y51434D01*
Y50164D01*
X242562Y48895D01*
X245101D01*
X246371Y47625D01*
Y46356D01*
X245101Y45086D01*
X242562D01*
X241292Y46356D01*
X253988Y52704D02*
X248910D01*
Y45086D01*
X253988D01*
X248910Y48895D02*
X251449D01*
X256527Y52704D02*
Y45086D01*
X261606D01*
X668784Y927099D02*
Y919481D01*
X672593D01*
X673862Y920751D01*
Y925829D01*
X672593Y927099D01*
X668784D01*
X680210Y919481D02*
Y927099D01*
X676402Y923290D01*
X681480D01*
X718822Y417575D02*
Y409957D01*
X722631D01*
X723900Y411227D01*
Y416305D01*
X722631Y417575D01*
X718822D01*
X726440Y416305D02*
X727709Y417575D01*
X730248D01*
X731518Y416305D01*
Y415036D01*
X730248Y413766D01*
X728979D01*
X730248D01*
X731518Y412496D01*
Y411227D01*
X730248Y409957D01*
X727709D01*
X726440Y411227D01*
X614682Y397509D02*
Y389891D01*
X618491D01*
X619760Y391161D01*
Y396239D01*
X618491Y397509D01*
X614682D01*
X627378Y389891D02*
X622300D01*
X627378Y394970D01*
Y396239D01*
X626108Y397509D01*
X623569D01*
X622300Y396239D01*
X614682Y281939D02*
Y274321D01*
X618490D01*
X619760Y275591D01*
Y280669D01*
X618490Y281939D01*
X614682D01*
X622299Y274321D02*
X624838D01*
X623569D01*
Y281939D01*
X622299Y280669D01*
X693930Y966977D02*
X692660Y968247D01*
X690121D01*
X688851Y966977D01*
Y961899D01*
X690121Y960629D01*
X692660D01*
X693930Y961899D01*
X696469Y966977D02*
X697738Y968247D01*
X700278D01*
X701547Y966977D01*
Y965708D01*
X700278Y964438D01*
X699008D01*
X700278D01*
X701547Y963168D01*
Y961899D01*
X700278Y960629D01*
X697738D01*
X696469Y961899D01*
X704086Y966977D02*
X705356Y968247D01*
X707895D01*
X709165Y966977D01*
Y961899D01*
X707895Y960629D01*
X705356D01*
X704086Y961899D01*
Y966977D01*
X292864Y787399D02*
X291594Y788669D01*
X289055D01*
X287785Y787399D01*
Y782321D01*
X289055Y781051D01*
X291594D01*
X292864Y782321D01*
X300481Y781051D02*
X295403D01*
X300481Y786130D01*
Y787399D01*
X299212Y788669D01*
X296672D01*
X295403Y787399D01*
X303020Y782321D02*
X304290Y781051D01*
X306829D01*
X308099Y782321D01*
Y787399D01*
X306829Y788669D01*
X304290D01*
X303020Y787399D01*
Y786130D01*
X304290Y784860D01*
X308099D01*
X293118Y771397D02*
X291848Y772667D01*
X289309D01*
X288039Y771397D01*
Y766319D01*
X289309Y765049D01*
X291848D01*
X293118Y766319D01*
X300735Y765049D02*
X295657D01*
X300735Y770128D01*
Y771397D01*
X299466Y772667D01*
X296926D01*
X295657Y771397D01*
X303274D02*
X304544Y772667D01*
X307083D01*
X308353Y771397D01*
Y770128D01*
X307083Y768858D01*
X308353Y767588D01*
Y766319D01*
X307083Y765049D01*
X304544D01*
X303274Y766319D01*
Y767588D01*
X304544Y768858D01*
X303274Y770128D01*
Y771397D01*
X304544Y768858D02*
X307083D01*
X292610Y755141D02*
X291340Y756411D01*
X288801D01*
X287531Y755141D01*
Y750063D01*
X288801Y748793D01*
X291340D01*
X292610Y750063D01*
X300227Y748793D02*
X295149D01*
X300227Y753872D01*
Y755141D01*
X298958Y756411D01*
X296418D01*
X295149Y755141D01*
X302766Y756411D02*
X307845D01*
Y755141D01*
X302766Y750063D01*
Y748793D01*
X339854Y907033D02*
X338584Y908303D01*
X336045D01*
X334775Y907033D01*
Y901955D01*
X336045Y900685D01*
X338584D01*
X339854Y901955D01*
X347471Y900685D02*
X342393D01*
X347471Y905764D01*
Y907033D01*
X346202Y908303D01*
X343662D01*
X342393Y907033D01*
X355089Y908303D02*
X352550Y907033D01*
X350010Y904494D01*
Y901955D01*
X351280Y900685D01*
X353819D01*
X355089Y901955D01*
Y903224D01*
X353819Y904494D01*
X350010D01*
X339854Y887983D02*
X338584Y889253D01*
X336045D01*
X334775Y887983D01*
Y882905D01*
X336045Y881635D01*
X338584D01*
X339854Y882905D01*
X347471Y881635D02*
X342393D01*
X347471Y886714D01*
Y887983D01*
X346202Y889253D01*
X343662D01*
X342393Y887983D01*
X355089Y889253D02*
X350010D01*
Y885444D01*
X352550Y886714D01*
X353819D01*
X355089Y885444D01*
Y882905D01*
X353819Y881635D01*
X351280D01*
X350010Y882905D01*
X145798Y814831D02*
X144528Y816101D01*
X141989D01*
X140719Y814831D01*
Y809753D01*
X141989Y808483D01*
X144528D01*
X145798Y809753D01*
X153415Y808483D02*
X148337D01*
X153415Y813562D01*
Y814831D01*
X152146Y816101D01*
X149606D01*
X148337Y814831D01*
X159763Y808483D02*
Y816101D01*
X155954Y812292D01*
X161033D01*
X178310Y814323D02*
X177040Y815593D01*
X174501D01*
X173231Y814323D01*
Y809245D01*
X174501Y807975D01*
X177040D01*
X178310Y809245D01*
X185927Y807975D02*
X180849D01*
X185927Y813054D01*
Y814323D01*
X184658Y815593D01*
X182118D01*
X180849Y814323D01*
X188466D02*
X189736Y815593D01*
X192275D01*
X193545Y814323D01*
Y813054D01*
X192275Y811784D01*
X191006D01*
X192275D01*
X193545Y810514D01*
Y809245D01*
X192275Y807975D01*
X189736D01*
X188466Y809245D01*
X440437Y676912D02*
X439167Y675642D01*
Y673103D01*
X440437Y671833D01*
X445515D01*
X446785Y673103D01*
Y675642D01*
X445515Y676912D01*
X446785Y684529D02*
Y679451D01*
X441706Y684529D01*
X440437D01*
X439167Y683260D01*
Y680720D01*
X440437Y679451D01*
X446785Y692147D02*
Y687068D01*
X441706Y692147D01*
X440437D01*
X439167Y690877D01*
Y688338D01*
X440437Y687068D01*
X425207Y691643D02*
X423937Y690374D01*
Y687834D01*
X425207Y686565D01*
X430285D01*
X431555Y687834D01*
Y690374D01*
X430285Y691643D01*
X431555Y699261D02*
Y694182D01*
X426476Y699261D01*
X425207D01*
X423937Y697991D01*
Y695452D01*
X425207Y694182D01*
X431555Y701800D02*
Y704339D01*
Y703070D01*
X423937D01*
X425207Y701800D01*
X461266Y853693D02*
X459996Y854963D01*
X457457D01*
X456187Y853693D01*
Y848615D01*
X457457Y847345D01*
X459996D01*
X461266Y848615D01*
X468883Y847345D02*
X463805D01*
X468883Y852424D01*
Y853693D01*
X467614Y854963D01*
X465074D01*
X463805Y853693D01*
X471422D02*
X472692Y854963D01*
X475231D01*
X476501Y853693D01*
Y848615D01*
X475231Y847345D01*
X472692D01*
X471422Y848615D01*
Y853693D01*
X536736Y839723D02*
X535467Y840993D01*
X532928D01*
X531658Y839723D01*
Y834645D01*
X532928Y833375D01*
X535467D01*
X536736Y834645D01*
X539276Y833375D02*
X541815D01*
X540545D01*
Y840993D01*
X539276Y839723D01*
X545624Y834645D02*
X546893Y833375D01*
X549432D01*
X550702Y834645D01*
Y839723D01*
X549432Y840993D01*
X546893D01*
X545624Y839723D01*
Y838454D01*
X546893Y837184D01*
X550702D01*
X462662Y808481D02*
X461393Y809751D01*
X458854D01*
X457584Y808481D01*
Y803403D01*
X458854Y802133D01*
X461393D01*
X462662Y803403D01*
X465202Y802133D02*
X467741D01*
X466471D01*
Y809751D01*
X465202Y808481D01*
X471550Y809751D02*
X476628D01*
Y808481D01*
X471550Y803403D01*
Y802133D01*
X486538Y803401D02*
X485269Y804671D01*
X482730D01*
X481460Y803401D01*
Y798323D01*
X482730Y797053D01*
X485269D01*
X486538Y798323D01*
X489078Y797053D02*
X491617D01*
X490347D01*
Y804671D01*
X489078Y803401D01*
X500504Y804671D02*
X497965Y803401D01*
X495426Y800862D01*
Y798323D01*
X496695Y797053D01*
X499234D01*
X500504Y798323D01*
Y799592D01*
X499234Y800862D01*
X495426D01*
X538862Y791209D02*
X537593Y792479D01*
X535054D01*
X533784Y791209D01*
Y786131D01*
X535054Y784861D01*
X537593D01*
X538862Y786131D01*
X541402Y784861D02*
X543941D01*
X542671D01*
Y792479D01*
X541402Y791209D01*
X552828Y792479D02*
X547750D01*
Y788670D01*
X550289Y789940D01*
X551558D01*
X552828Y788670D01*
Y786131D01*
X551558Y784861D01*
X549019D01*
X547750Y786131D01*
X522860Y753363D02*
X521591Y754633D01*
X519052D01*
X517782Y753363D01*
Y748285D01*
X519052Y747015D01*
X521591D01*
X522860Y748285D01*
X525400Y747015D02*
X527939D01*
X526669D01*
Y754633D01*
X525400Y753363D01*
X535556Y747015D02*
Y754633D01*
X531748Y750824D01*
X536826D01*
X522606Y768095D02*
X521337Y769365D01*
X518798D01*
X517528Y768095D01*
Y763017D01*
X518798Y761747D01*
X521337D01*
X522606Y763017D01*
X525146Y761747D02*
X527685D01*
X526415D01*
Y769365D01*
X525146Y768095D01*
X531494D02*
X532763Y769365D01*
X535302D01*
X536572Y768095D01*
Y766826D01*
X535302Y765556D01*
X534033D01*
X535302D01*
X536572Y764286D01*
Y763017D01*
X535302Y761747D01*
X532763D01*
X531494Y763017D01*
X493267Y217710D02*
X494537Y218979D01*
Y221518D01*
X493267Y222788D01*
X488189D01*
X486919Y221518D01*
Y218979D01*
X488189Y217710D01*
X486919Y215170D02*
Y212631D01*
Y213901D01*
X494537D01*
X493267Y215170D01*
X486919Y203744D02*
Y208822D01*
X491998Y203744D01*
X493267D01*
X494537Y205014D01*
Y207553D01*
X493267Y208822D01*
X477519Y316864D02*
X478789Y318134D01*
Y320673D01*
X477519Y321942D01*
X472441D01*
X471171Y320673D01*
Y318134D01*
X472441Y316864D01*
X471171Y314325D02*
Y311786D01*
Y313055D01*
X478789D01*
X477519Y314325D01*
X471171Y307977D02*
Y305438D01*
Y306707D01*
X478789D01*
X477519Y307977D01*
X513079Y335406D02*
X514349Y336675D01*
Y339214D01*
X513079Y340484D01*
X508001D01*
X506731Y339214D01*
Y336675D01*
X508001Y335406D01*
X506731Y332866D02*
Y330327D01*
Y331597D01*
X514349D01*
X513079Y332866D01*
Y326518D02*
X514349Y325249D01*
Y322710D01*
X513079Y321440D01*
X508001D01*
X506731Y322710D01*
Y325249D01*
X508001Y326518D01*
X513079D01*
X605282Y211327D02*
X604013Y212597D01*
X601474D01*
X600204Y211327D01*
Y206249D01*
X601474Y204979D01*
X604013D01*
X605282Y206249D01*
X607822D02*
X609091Y204979D01*
X611630D01*
X612900Y206249D01*
Y211327D01*
X611630Y212597D01*
X609091D01*
X607822Y211327D01*
Y210058D01*
X609091Y208788D01*
X612900D01*
X594360Y251459D02*
X593091Y252729D01*
X590552D01*
X589282Y251459D01*
Y246381D01*
X590552Y245111D01*
X593091D01*
X594360Y246381D01*
X596900Y251459D02*
X598169Y252729D01*
X600708D01*
X601978Y251459D01*
Y250190D01*
X600708Y248920D01*
X601978Y247650D01*
Y246381D01*
X600708Y245111D01*
X598169D01*
X596900Y246381D01*
Y247650D01*
X598169Y248920D01*
X596900Y250190D01*
Y251459D01*
X598169Y248920D02*
X600708D01*
X594360Y270509D02*
X593091Y271779D01*
X590552D01*
X589282Y270509D01*
Y265431D01*
X590552Y264161D01*
X593091D01*
X594360Y265431D01*
X596900Y271779D02*
X601978D01*
Y270509D01*
X596900Y265431D01*
Y264161D01*
X53340Y59689D02*
X52071Y60959D01*
X49532D01*
X48262Y59689D01*
Y54611D01*
X49532Y53341D01*
X52071D01*
X53340Y54611D01*
X60958Y60959D02*
X58419Y59689D01*
X55880Y57150D01*
Y54611D01*
X57149Y53341D01*
X59688D01*
X60958Y54611D01*
Y55880D01*
X59688Y57150D01*
X55880D01*
X582930Y519175D02*
X581661Y520445D01*
X579122D01*
X577852Y519175D01*
Y514097D01*
X579122Y512827D01*
X581661D01*
X582930Y514097D01*
X590548Y520445D02*
X585470D01*
Y516636D01*
X588009Y517906D01*
X589278D01*
X590548Y516636D01*
Y514097D01*
X589278Y512827D01*
X586739D01*
X585470Y514097D01*
X567690Y628649D02*
X566421Y629919D01*
X563882D01*
X562612Y628649D01*
Y623571D01*
X563882Y622301D01*
X566421D01*
X567690Y623571D01*
X574038Y622301D02*
Y629919D01*
X570230Y626110D01*
X575308D01*
X18796Y322325D02*
X17527Y323595D01*
X14988D01*
X13718Y322325D01*
Y317247D01*
X14988Y315977D01*
X17527D01*
X18796Y317247D01*
X21336Y322325D02*
X22605Y323595D01*
X25144D01*
X26414Y322325D01*
Y321056D01*
X25144Y319786D01*
X23875D01*
X25144D01*
X26414Y318516D01*
Y317247D01*
X25144Y315977D01*
X22605D01*
X21336Y317247D01*
X36830Y365759D02*
X35561Y367029D01*
X33022D01*
X31752Y365759D01*
Y360681D01*
X33022Y359411D01*
X35561D01*
X36830Y360681D01*
X44448Y359411D02*
X39370D01*
X44448Y364490D01*
Y365759D01*
X43178Y367029D01*
X40639D01*
X39370Y365759D01*
X39370Y347979D02*
X38100Y349249D01*
X35561D01*
X34292Y347979D01*
Y342901D01*
X35561Y341631D01*
X38100D01*
X39370Y342901D01*
X41909Y341631D02*
X44448D01*
X43179D01*
Y349249D01*
X41909Y347979D01*
X731777Y72389D02*
Y64771D01*
X735586D01*
X736855Y66041D01*
Y67310D01*
X735586Y68580D01*
X731777D01*
X735586D01*
X736855Y69850D01*
Y71119D01*
X735586Y72389D01*
X731777D01*
X739394D02*
X744473D01*
X741934D01*
Y64771D01*
X747012D02*
X749551D01*
X748281D01*
Y72389D01*
X747012Y71119D01*
X21466Y965709D02*
Y970788D01*
X24005Y973327D01*
X26544Y970788D01*
Y965709D01*
Y969518D01*
X21466D01*
X29083Y973327D02*
X34162D01*
X31623D01*
Y965709D01*
X36701D02*
X39240D01*
X37970D01*
Y973327D01*
X36701Y972057D01*
M02*
