M48
;Layer_Color=9474304
;FILE_FORMAT=4:4
METRIC,LZ
;TYPE=PLATED
T01F00S00C0.3048
T03F00S00C0.7112
T04F00S00C0.7620
T05F00S00C1.0000
T06F00S00C1.0200
T07F00S00C3.5560
%
T01
X0007493Y0005842
X0006985Y00089154
Y00130556
X00045974Y0010922
X0058217Y001016
X00581152Y00068072
X00636016Y00067818
X0058293Y001397
X00588264Y00191008
X00579882Y00236728
X0058039Y00279908
X00709588Y00397422
X00620522Y00531368
X0049657Y00347472
X0046101Y00334428
X0046609Y0027064
Y0026289
X0045834
X0046609Y0025514
X0047384Y0026289
X00476758Y00195486
X0041402Y00175768
X00392938Y00250444
X00401574Y00259588
X00314198Y00282448
X00314706Y00216154
X00314198Y0018288
X00218517Y00394893
X00207769Y00405641
X00164203Y00471155
X0021082Y00533209
X0009017Y00363728
X00090424Y00345694
X00042548Y002921
X00025146Y00271526
X0005461Y00242543
Y00227076
X00058375Y00594973
X0005842Y00613918
X00062484Y00727964
Y00740664
X00075184
Y00753364
X00087884
Y00766064
X00075184
X00062484
Y00753364
X00049784
X00037084
Y00766064
X00049784
Y00740664
X00037084
X00024384
Y00753364
X00011684
Y00766064
X00024384
X00011684Y00740664
Y00727964
X00024384
X00037084
X00049784
X00075184
X00087884
Y00740664
X00100584Y00738378
Y00751078
Y00763778
Y0077216
Y00780542
Y00789178
Y00801878
Y0081153
X00113284Y0081407
Y00801878
Y00789178
X00125984
X00138684
Y00801878
Y0081407
X00125984
Y00801878
Y00776478
X00138684
Y00763778
X00125984
X00113284
Y00776478
Y00751078
X00125984
Y00738378
X00138684
Y00725678
X00125984
X00113284
X00100584
X00113284Y00738378
X00138684Y00751078
Y00829335
Y008382
Y008509
Y008636
Y008763
Y00889
Y009017
X00125984
X00113284
X00100584
Y009144
Y009271
X00113284
X00125984
X00138684
Y009144
X00125984
X00113284
Y00889
Y008763
X00100584
Y008636
X00113284
X00125984
Y008509
X00113284
Y008382
Y00829437
X00125984
Y008382
X00100584
Y0083185
Y008509
Y00889
X00125984
Y008763
X00151384Y008509
X00164084
X00176784
Y008382
X00189484
Y008509
X00202184
X00214884
Y008382
X00215138Y00828909
X00202438
X00202184Y008382
Y00814578
X00189484
Y00801878
X00176784
Y00814578
X00164084Y0081407
X0016383Y00801878
X00151384
Y00814578
Y008382
X0016383
X00164084Y00829335
X00227838Y00828909
X00227584Y008382
Y008509
X00240284
X00252984
X00265684
Y008382
X00265938Y00828909
X00278638
X00278384Y008382
X00291084
X00291338Y00828909
X00304292
X00304038Y008382
X00316738
X00316992Y00828909
X00329692
X00329438Y008382
X00342138
X00342392Y00828909
X00342138Y00814578
X00329438
X00316738
Y00801878
X00304038
X00303784Y00814578
X00291084
X00278384
X00265684
X00252984
Y00801878
X00240284
X00227584
Y00814578
X00214884
Y00801878
X00202184
X00240284Y00814578
X00240538Y00828909
X00240284Y008382
X00252984
X00253238Y00828909
X00265684Y00801878
X00278384
X00291084
X00329438
X0031369Y0078486
X00313944Y00768604
Y00752856
X00307472Y00722376
X00307594Y00705104
X00323007Y00706201
X00334772Y00706374
X00388885Y00696203
X00389382Y00672592
X00395986Y00735838
X0039649Y00750193
X00391907Y00791988
X00405074
Y00805155
X00391907
Y00818321
X00405074
Y00831488
X00391907
X0037874
Y00818321
Y00805155
Y00791988
X00418241
Y00805155
Y00818321
Y00831488
X00446786Y00810768
X00444754Y00787908
X00485126Y0078817
X00489113Y00821317
X00487208Y00837199
X00474472Y00864108
X0047498Y00886968
X00409448Y0087757
X0038869Y00917036
X00290322Y00904494
Y00885444
X00291084Y008509
X00278384
X00304038
X00316738
X00329438
X00342138
X00535087Y00837319
X0053242Y00821451
X00537373Y00787912
X00512133Y0076581
X00512064Y0075057
X00508254Y00705358
X00500376Y00686246
X00518414
X00508254Y00671322
X00444119Y00701167
X00427228Y00712978
X00286588Y00644322
X00270443Y00649291
X00274055Y0063179
X00286004Y00620014
X00298295Y00632206
X00306462Y0061378
X00245364Y00608076
X00245759Y00590804
X00223546
X0022479Y00605282
X00177292Y00593344
X00211095Y00545126
X00551942Y00561594
X00573278
X00573532Y0057785
X00566928Y00573786
X00613528Y00571156
X00616204Y00559308
X00630428Y00563118
X00609854Y00543052
X005969Y00541782
X00593344Y00598932
X0058928Y0062865
X0063353Y00697792
X00642046Y00705799
X00555244Y00861568
Y00878586
X00677672Y00932688
X00700278Y00916178
X008509Y0097028
X00138684Y009652
X00125984
X00113284
X00100584
Y009525
X00113284
X00125984
Y009398
X00138684
Y009525
Y009779
X00125984
X00113284
X00100584
Y009398
X00113284
T03
X00851916Y00062484
T04
X0042164Y0002794
X0044704
X006223Y0032385
X006477
X00165608Y00272034
X00156974Y00243025
X0018923Y00529082
X0024638Y0048514
X00067818Y00529844
Y00555244
Y00580644
X00194564Y0058039
X0018796Y0055499
X00638175Y00680085
X00639614Y00722545
T05
X0058547Y009075
X0065047
Y009525
X0058547
T06
X0018923Y0002667
X0021463
X0024003
T07
X00256286Y00123444
X009398Y000508
X0050292Y00460248
Y00934212
M30
