G04*
G04 #@! TF.GenerationSoftware,Altium Limited,Altium Designer,24.1.2 (44)*
G04*
G04 Layer_Color=16711935*
%FSLAX44Y44*%
%MOMM*%
G71*
G04*
G04 #@! TF.SameCoordinates,E8B3DE28-F026-41F4-99A8-411043518BE1*
G04*
G04*
G04 #@! TF.FilePolarity,Positive*
G04*
G01*
G75*
%ADD10C,0.2500*%
%ADD11C,0.1000*%
%ADD13C,0.2000*%
%ADD15C,0.2540*%
%ADD16C,0.1270*%
%ADD131C,0.1500*%
%ADD132C,0.0500*%
%ADD133C,0.1200*%
G36*
X391647Y836236D02*
X379625D01*
X379603D01*
X379512D01*
X379377D01*
X379174D01*
X378949Y836214D01*
X378700D01*
X378407Y836191D01*
X378114Y836168D01*
X377460Y836123D01*
X376806Y836033D01*
X376174Y835898D01*
X375881Y835830D01*
X375633Y835740D01*
X375611D01*
X375588Y835717D01*
X375520Y835695D01*
X375430Y835650D01*
X375182Y835514D01*
X374911Y835334D01*
X374573Y835108D01*
X374257Y834815D01*
X373941Y834454D01*
X373648Y834026D01*
Y834003D01*
X373626Y833958D01*
X373581Y833890D01*
X373535Y833800D01*
X373490Y833687D01*
X373445Y833529D01*
X373377Y833372D01*
X373310Y833191D01*
X373197Y832740D01*
X373084Y832221D01*
X372994Y831635D01*
X372971Y831003D01*
Y830710D01*
X372994Y830507D01*
X373017Y830259D01*
X373039Y829966D01*
X373084Y829650D01*
X373152Y829312D01*
X373310Y828612D01*
X373423Y828251D01*
X373558Y827891D01*
X373716Y827552D01*
X373896Y827236D01*
X374099Y826943D01*
X374347Y826673D01*
X374370Y826650D01*
X374415Y826605D01*
X374505Y826560D01*
X374618Y826470D01*
X374776Y826379D01*
X374979Y826267D01*
X375227Y826131D01*
X375520Y826019D01*
X375859Y825906D01*
X376242Y825770D01*
X376670Y825658D01*
X377144Y825567D01*
X377686Y825477D01*
X378272Y825409D01*
X378926Y825387D01*
X379625Y825364D01*
X391647D01*
Y822613D01*
X379625D01*
X379580D01*
X379490D01*
X379332D01*
X379106D01*
X378836Y822635D01*
X378543Y822658D01*
X378204Y822680D01*
X377821Y822703D01*
X377031Y822793D01*
X376197Y822906D01*
X375385Y823086D01*
X375001Y823199D01*
X374641Y823334D01*
X374618D01*
X374550Y823357D01*
X374460Y823402D01*
X374325Y823470D01*
X374167Y823560D01*
X373987Y823650D01*
X373581Y823921D01*
X373332Y824079D01*
X373107Y824259D01*
X372836Y824485D01*
X372588Y824710D01*
X372340Y824981D01*
X372092Y825252D01*
X371866Y825567D01*
X371641Y825906D01*
X371618Y825928D01*
X371596Y825996D01*
X371528Y826086D01*
X371460Y826244D01*
X371370Y826424D01*
X371280Y826650D01*
X371167Y826898D01*
X371077Y827214D01*
X370964Y827530D01*
X370851Y827891D01*
X370761Y828297D01*
X370671Y828725D01*
X370603Y829199D01*
X370536Y829695D01*
X370513Y830214D01*
X370490Y830755D01*
Y831048D01*
X370513Y831251D01*
Y831499D01*
X370536Y831770D01*
X370581Y832108D01*
X370626Y832447D01*
X370738Y833214D01*
X370919Y834026D01*
X371167Y834815D01*
X371302Y835199D01*
X371483Y835559D01*
X371505Y835582D01*
X371528Y835650D01*
X371596Y835740D01*
X371663Y835853D01*
X371776Y836011D01*
X371911Y836191D01*
X372047Y836371D01*
X372227Y836574D01*
X372633Y837026D01*
X373129Y837454D01*
X373716Y837860D01*
X374054Y838040D01*
X374393Y838198D01*
X374415D01*
X374483Y838221D01*
X374595Y838266D01*
X374753Y838311D01*
X374934Y838379D01*
X375182Y838446D01*
X375453Y838514D01*
X375768Y838582D01*
X376129Y838672D01*
X376513Y838740D01*
X376941Y838807D01*
X377415Y838852D01*
X377911Y838920D01*
X378452Y838943D01*
X379016Y838988D01*
X379625D01*
X391647D01*
Y836236D01*
D02*
G37*
G36*
X376490Y816365D02*
X376468D01*
X376400Y816342D01*
X376310Y816320D01*
X376174Y816297D01*
X376016Y816275D01*
X375813Y816207D01*
X375385Y816094D01*
X374911Y815914D01*
X374415Y815666D01*
X373964Y815372D01*
X373761Y815192D01*
X373558Y815012D01*
Y814989D01*
X373513Y814967D01*
X373468Y814899D01*
X373400Y814809D01*
X373242Y814583D01*
X373084Y814267D01*
X372904Y813884D01*
X372746Y813433D01*
X372633Y812936D01*
X372611Y812666D01*
X372588Y812373D01*
Y812192D01*
X372611Y812057D01*
X372633Y811899D01*
X372656Y811719D01*
X372769Y811290D01*
X372926Y810794D01*
X373039Y810546D01*
X373175Y810275D01*
X373332Y810004D01*
X373513Y809756D01*
X373716Y809508D01*
X373964Y809260D01*
X373987Y809237D01*
X374032Y809215D01*
X374099Y809147D01*
X374212Y809057D01*
X374370Y808967D01*
X374528Y808854D01*
X374731Y808741D01*
X374956Y808606D01*
X375205Y808493D01*
X375475Y808380D01*
X375791Y808268D01*
X376107Y808177D01*
X376468Y808087D01*
X376851Y808019D01*
X377234Y807997D01*
X377663Y807974D01*
X377686D01*
X377753D01*
X377866D01*
X378024Y807997D01*
X378204Y808019D01*
X378430Y808042D01*
X378655Y808087D01*
X378926Y808132D01*
X379467Y808268D01*
X380054Y808493D01*
X380325Y808628D01*
X380595Y808809D01*
X380866Y808989D01*
X381114Y809215D01*
X381137Y809237D01*
X381159Y809260D01*
X381227Y809350D01*
X381317Y809440D01*
X381407Y809553D01*
X381520Y809711D01*
X381633Y809869D01*
X381768Y810072D01*
X381881Y810297D01*
X381994Y810523D01*
X382197Y811087D01*
X382287Y811380D01*
X382355Y811719D01*
X382377Y812057D01*
X382400Y812418D01*
Y812621D01*
X382377Y812869D01*
X382332Y813162D01*
X382264Y813523D01*
X382151Y813906D01*
X382016Y814290D01*
X381813Y814673D01*
X381791Y814718D01*
X381723Y814831D01*
X381588Y815012D01*
X381430Y815237D01*
X381204Y815463D01*
X380956Y815733D01*
X380663Y815982D01*
X380347Y816207D01*
X380685Y818598D01*
X391376Y816590D01*
Y806238D01*
X388941D01*
Y814560D01*
X383347Y815666D01*
X383369Y815643D01*
X383414Y815575D01*
X383460Y815485D01*
X383550Y815350D01*
X383640Y815170D01*
X383753Y814967D01*
X383888Y814741D01*
X384001Y814470D01*
X384114Y814200D01*
X384249Y813884D01*
X384452Y813230D01*
X384542Y812869D01*
X384610Y812508D01*
X384632Y812124D01*
X384655Y811741D01*
Y811628D01*
X384632Y811470D01*
Y811290D01*
X384587Y811064D01*
X384565Y810794D01*
X384497Y810478D01*
X384430Y810162D01*
X384317Y809801D01*
X384204Y809440D01*
X384046Y809057D01*
X383866Y808674D01*
X383640Y808290D01*
X383392Y807907D01*
X383099Y807523D01*
X382760Y807162D01*
X382738Y807140D01*
X382670Y807072D01*
X382557Y806982D01*
X382422Y806869D01*
X382242Y806711D01*
X381994Y806553D01*
X381745Y806395D01*
X381452Y806215D01*
X381114Y806035D01*
X380731Y805877D01*
X380347Y805696D01*
X379896Y805561D01*
X379445Y805448D01*
X378949Y805358D01*
X378430Y805290D01*
X377888Y805268D01*
X377866D01*
X377753D01*
X377618D01*
X377415Y805290D01*
X377167Y805313D01*
X376896Y805358D01*
X376580Y805403D01*
X376219Y805471D01*
X375859Y805561D01*
X375453Y805674D01*
X375047Y805809D01*
X374641Y805967D01*
X374235Y806147D01*
X373806Y806373D01*
X373400Y806621D01*
X373017Y806914D01*
X372994Y806937D01*
X372904Y807004D01*
X372791Y807117D01*
X372633Y807275D01*
X372430Y807478D01*
X372227Y807726D01*
X371979Y808019D01*
X371754Y808358D01*
X371528Y808719D01*
X371280Y809125D01*
X371077Y809576D01*
X370896Y810072D01*
X370716Y810591D01*
X370603Y811155D01*
X370513Y811741D01*
X370490Y812373D01*
Y812643D01*
X370513Y812846D01*
X370536Y813094D01*
X370581Y813365D01*
X370626Y813681D01*
X370693Y814019D01*
X370761Y814380D01*
X370874Y814763D01*
X371009Y815147D01*
X371167Y815530D01*
X371348Y815914D01*
X371550Y816297D01*
X371799Y816658D01*
X372069Y817019D01*
X372092Y817041D01*
X372137Y817087D01*
X372227Y817177D01*
X372363Y817290D01*
X372520Y817448D01*
X372701Y817605D01*
X372926Y817763D01*
X373197Y817944D01*
X373468Y818124D01*
X373783Y818305D01*
X374144Y818463D01*
X374505Y818620D01*
X374911Y818778D01*
X375340Y818891D01*
X375813Y818981D01*
X376287Y819049D01*
X376490Y816365D01*
D02*
G37*
D10*
X199390Y33316D02*
Y24652D01*
X203722Y20320D01*
X208054Y24652D01*
Y33316D01*
X212386D02*
Y20320D01*
X218884D01*
X221050Y22486D01*
Y31150D01*
X218884Y33316D01*
X212386D01*
X225382D02*
Y20320D01*
X231880D01*
X234046Y22486D01*
Y31150D01*
X231880Y33316D01*
X225382D01*
X238377Y18154D02*
X247041D01*
X251373Y33316D02*
Y20320D01*
X260037D01*
X270867Y33316D02*
X266535D01*
X264369Y31150D01*
Y22486D01*
X266535Y20320D01*
X270867D01*
X273033Y22486D01*
Y31150D01*
X270867Y33316D01*
X277365Y20320D02*
Y28984D01*
X281697Y33316D01*
X286029Y28984D01*
Y20320D01*
Y26818D01*
X277365D01*
X290361Y33316D02*
Y20320D01*
X296859D01*
X299025Y22486D01*
Y31150D01*
X296859Y33316D01*
X290361D01*
X303356Y18154D02*
X312020D01*
X325016Y31150D02*
X322850Y33316D01*
X318518D01*
X316352Y31150D01*
Y28984D01*
X318518Y26818D01*
X322850D01*
X325016Y24652D01*
Y22486D01*
X322850Y20320D01*
X318518D01*
X316352Y22486D01*
X338012Y33316D02*
X329348D01*
Y20320D01*
X338012D01*
X329348Y26818D02*
X333680D01*
X342344Y33316D02*
Y20320D01*
X351008D01*
D11*
X424990Y833238D02*
G03*
X424990Y833238I-5000J0D01*
G01*
X64110Y314350D02*
G03*
X64110Y314350I-5000J0D01*
G01*
X68850Y115220D02*
G03*
X68850Y115220I-5000J0D01*
G01*
X603900Y559720D02*
G03*
X603900Y559720I-5000J0D01*
G01*
X495640Y226830D02*
Y256630D01*
X525440Y226830D02*
Y256630D01*
X495640Y226830D02*
X525440D01*
X495640Y256630D02*
X525440D01*
X502810Y816690D02*
X520810D01*
X502810Y826690D02*
X520810D01*
Y816690D02*
Y826690D01*
X502810Y816690D02*
Y826690D01*
X719400Y935110D02*
Y952110D01*
X728400Y935110D02*
Y952110D01*
X719400Y935110D02*
X728400D01*
X719400Y952110D02*
X728400D01*
X367991Y781238D02*
Y842238D01*
X428990Y781238D02*
Y842238D01*
X367991Y781238D02*
X428990D01*
X367991Y842238D02*
X428990D01*
X695278Y932578D02*
Y950578D01*
X705278Y932578D02*
Y950578D01*
X695278Y932578D02*
X705278D01*
X695278Y950578D02*
X705278D01*
X422492Y744330D02*
X432492D01*
X422492Y726330D02*
X432492D01*
Y744330D01*
X422492Y726330D02*
Y744330D01*
X341236Y919048D02*
Y928548D01*
X323736Y919048D02*
Y928548D01*
Y919048D02*
X341236D01*
X323736Y928548D02*
X341236D01*
X674422Y951650D02*
X680922D01*
X674422Y940650D02*
X680922D01*
Y951650D01*
X674422Y940650D02*
Y951650D01*
X564560Y201788D02*
X586060D01*
X564560Y215788D02*
X586060D01*
Y201788D02*
Y215788D01*
X564560Y201788D02*
Y215788D01*
X698588Y412294D02*
Y418794D01*
X709588Y412294D02*
Y418794D01*
X698588D02*
X709588D01*
X698588Y412294D02*
X709588D01*
X523316Y584568D02*
X532816D01*
X523316Y567068D02*
X532816D01*
Y584568D01*
X523316Y567068D02*
Y584568D01*
X306972Y731850D02*
Y741350D01*
X324472Y731850D02*
Y741350D01*
X306972D02*
X324472D01*
X306972Y731850D02*
X324472D01*
X324756Y790114D02*
X342756D01*
X324756Y780114D02*
X342756D01*
X324756D02*
Y790114D01*
X342756Y780114D02*
Y790114D01*
X457090Y793162D02*
X475090D01*
X457090Y783162D02*
X475090D01*
X457090D02*
Y793162D01*
X475090Y783162D02*
Y793162D01*
X439914Y744460D02*
Y774460D01*
X469914Y744460D02*
Y774460D01*
X439914D02*
X469914D01*
X439914Y744460D02*
X469914D01*
X563864Y60542D02*
X653264D01*
Y-7458D02*
Y60542D01*
X563864Y-7458D02*
X653264D01*
X563864D02*
Y60542D01*
X494270Y273544D02*
Y303544D01*
X524270Y273544D02*
Y303544D01*
X494270Y273544D02*
X524270D01*
X494270Y303544D02*
X524270D01*
X208127Y467925D02*
Y476925D01*
X225126Y467925D02*
Y476925D01*
X208127D02*
X225126D01*
X208127Y467925D02*
X225126D01*
X190836Y466655D02*
Y475655D01*
X173837Y466655D02*
Y475655D01*
Y466655D02*
X190836D01*
X173837Y475655D02*
X190836D01*
X305452Y909494D02*
X323452D01*
X305452Y899494D02*
X323452D01*
X305452D02*
Y909494D01*
X323452Y899494D02*
Y909494D01*
X323198Y880952D02*
Y890952D01*
X305198Y880952D02*
Y890952D01*
Y880952D02*
X323198D01*
X305198Y890952D02*
X323198D01*
X139269Y819004D02*
Y824503D01*
X128769Y819004D02*
Y824503D01*
Y819004D02*
X139269D01*
X128769Y824503D02*
X139269D01*
X382760Y882597D02*
Y909597D01*
X416761Y882597D02*
Y909597D01*
X382760D02*
X416761D01*
X382760Y882597D02*
X416761D01*
X623960Y572080D02*
Y581080D01*
X640960Y572080D02*
Y581080D01*
X623960D02*
X640960D01*
X623960Y572080D02*
X640960D01*
X657615Y716733D02*
Y725733D01*
X674615Y716733D02*
Y725733D01*
X657615D02*
X674615D01*
X657615Y716733D02*
X674615D01*
X657615Y674315D02*
Y683315D01*
X674615Y674315D02*
Y683315D01*
X657615D02*
X674615D01*
X657615Y674315D02*
X674615D01*
X254630Y13970D02*
Y39370D01*
X174630Y13970D02*
X254630D01*
X174630D02*
Y39370D01*
X254630D01*
X604910Y608910D02*
Y617910D01*
X621910Y608910D02*
Y617910D01*
X604910D02*
X621910D01*
X604910Y608910D02*
X621910D01*
X586350Y967050D02*
Y976050D01*
X569350Y967050D02*
Y976050D01*
Y967050D02*
X586350D01*
X569350Y976050D02*
X586350D01*
X162043Y824503D02*
X172543D01*
X162043Y819004D02*
X172543D01*
X162043D02*
Y824503D01*
X172543Y819004D02*
Y824503D01*
X153186Y820503D02*
Y831003D01*
X147686Y820503D02*
Y831003D01*
X153186D01*
X147686Y820503D02*
X153186D01*
X186335Y820503D02*
Y831003D01*
X180835Y820503D02*
Y831003D01*
X186335D01*
X180835Y820503D02*
X186335D01*
X594940Y315350D02*
X603940D01*
X594940Y332350D02*
X603940D01*
X594940Y315350D02*
Y332350D01*
X603940Y315350D02*
Y332350D01*
X447840Y244640D02*
Y281140D01*
X484340Y244640D02*
Y281140D01*
X447840Y244640D02*
X484340D01*
X447840Y281140D02*
X484340D01*
X632500Y389270D02*
X662900D01*
X632500Y375270D02*
X662900D01*
Y389270D01*
X632500Y375270D02*
Y389270D01*
X342756Y747856D02*
Y757856D01*
X324756Y747856D02*
Y757856D01*
Y747856D02*
X342756D01*
X324756Y757856D02*
X342756D01*
X342756Y763604D02*
Y773604D01*
X324756Y763604D02*
Y773604D01*
Y763604D02*
X342756D01*
X324756Y773604D02*
X342756D01*
X505096Y783670D02*
Y793670D01*
X523096Y783670D02*
Y793670D01*
X505096D02*
X523096D01*
X505096Y783670D02*
X523096D01*
X474836Y816182D02*
Y826182D01*
X456836Y816182D02*
Y826182D01*
Y816182D02*
X474836D01*
X456836Y826182D02*
X474836D01*
X484776Y760810D02*
Y770810D01*
X502776Y760810D02*
Y770810D01*
X484776D02*
X502776D01*
X484776Y760810D02*
X502776D01*
X421522Y171268D02*
Y180268D01*
X438522Y171268D02*
Y180268D01*
X421522D02*
X438522D01*
X421522Y171268D02*
X438522D01*
X662900Y259700D02*
Y273700D01*
X632500Y259700D02*
Y273700D01*
X662900D01*
X632500Y259700D02*
X662900D01*
X50110Y273350D02*
X80110D01*
X50110Y323350D02*
X80110D01*
Y273350D02*
Y323350D01*
X50110Y273350D02*
Y323350D01*
X54850Y94220D02*
Y124220D01*
X84850Y94220D02*
Y124220D01*
X54850D02*
X84850D01*
X54850Y94220D02*
X84850D01*
X580900Y588220D02*
X607900D01*
X580900Y550720D02*
X607900D01*
X580900D02*
Y588220D01*
X607900Y550720D02*
Y588220D01*
X558110Y545220D02*
Y562220D01*
X567110Y545220D02*
Y562220D01*
X558110Y545220D02*
X567110D01*
X558110Y562220D02*
X567110D01*
X328050Y260930D02*
X345050D01*
X328050Y269930D02*
X345050D01*
Y260930D02*
Y269930D01*
X328050Y260930D02*
Y269930D01*
X117230Y319350D02*
X134230D01*
X117230Y328350D02*
X134230D01*
Y319350D02*
Y328350D01*
X117230Y319350D02*
Y328350D01*
Y295220D02*
X134230D01*
X117230Y304220D02*
X134230D01*
Y295220D02*
Y304220D01*
X117230Y295220D02*
Y304220D01*
X328050Y286440D02*
X345050D01*
X328050Y277440D02*
X345050D01*
X328050D02*
Y286440D01*
X345050Y277440D02*
Y286440D01*
X55000Y140280D02*
X72000D01*
X55000Y149280D02*
X72000D01*
Y140280D02*
Y149280D01*
X55000Y140280D02*
Y149280D01*
X98370Y103260D02*
Y120260D01*
X107370Y103260D02*
Y120260D01*
X98370Y103260D02*
X107370D01*
X98370Y120260D02*
X107370D01*
X582050Y116260D02*
X599050D01*
X582050Y107260D02*
X599050D01*
X582050D02*
Y116260D01*
X599050Y107260D02*
Y116260D01*
X582050Y131500D02*
X599050D01*
X582050Y122500D02*
X599050D01*
X582050D02*
Y131500D01*
X599050Y122500D02*
Y131500D01*
X328050Y227910D02*
X345050D01*
X328050Y236910D02*
X345050D01*
Y227910D02*
Y236910D01*
X328050Y227910D02*
Y236910D01*
Y244420D02*
X345050D01*
X328050Y253420D02*
X345050D01*
Y244420D02*
Y253420D01*
X328050Y244420D02*
Y253420D01*
Y194890D02*
X345050D01*
X328050Y203890D02*
X345050D01*
Y194890D02*
Y203890D01*
X328050Y194890D02*
Y203890D01*
X117230Y267280D02*
X134230D01*
X117230Y276280D02*
X134230D01*
Y267280D02*
Y276280D01*
X117230Y267280D02*
Y276280D01*
X75320Y238070D02*
X92320D01*
X75320Y247070D02*
X92320D01*
Y238070D02*
Y247070D01*
X75320Y238070D02*
Y247070D01*
X328050Y178380D02*
X345050D01*
X328050Y187380D02*
X345050D01*
Y178380D02*
Y187380D01*
X328050Y178380D02*
Y187380D01*
Y211400D02*
X345050D01*
X328050Y220400D02*
X345050D01*
Y211400D02*
Y220400D01*
X328050Y211400D02*
Y220400D01*
X465400Y19440D02*
Y36440D01*
X474400Y19440D02*
Y36440D01*
X465400Y19440D02*
X474400D01*
X465400Y36440D02*
X474400D01*
X449970Y171776D02*
X466970D01*
X449970Y180776D02*
X466970D01*
Y171776D02*
Y180776D01*
X449970Y171776D02*
Y180776D01*
X55770Y340440D02*
X73770D01*
X55770Y350440D02*
X73770D01*
Y340440D02*
Y350440D01*
X55770Y340440D02*
Y350440D01*
X55770Y368220D02*
X73770D01*
X55770Y358220D02*
X73770D01*
X55770D02*
Y368220D01*
X73770Y358220D02*
Y368220D01*
X20146Y285386D02*
Y303386D01*
X30146Y285386D02*
Y303386D01*
X20146Y285386D02*
X30146D01*
X20146Y303386D02*
X30146D01*
X570120Y617140D02*
X588120D01*
X570120Y607140D02*
X588120D01*
X570120D02*
Y617140D01*
X588120Y607140D02*
Y617140D01*
X586630Y526876D02*
X604630D01*
X586630Y536876D02*
X604630D01*
Y526876D02*
Y536876D01*
X586630Y526876D02*
Y536876D01*
X55770Y67390D02*
X73770D01*
X55770Y77390D02*
X73770D01*
Y67390D02*
Y77390D01*
X55770Y67390D02*
Y77390D01*
X561230Y262970D02*
X579230D01*
X561230Y272970D02*
X579230D01*
Y262970D02*
Y272970D01*
X561230Y262970D02*
Y272970D01*
Y243920D02*
X579230D01*
X561230Y253920D02*
X579230D01*
Y243920D02*
Y253920D01*
X561230Y243920D02*
Y253920D01*
X501570Y314342D02*
Y332342D01*
X491570Y314342D02*
Y332342D01*
X501570D01*
X491570Y314342D02*
X501570D01*
X466010Y305960D02*
Y323960D01*
X456010Y305960D02*
Y323960D01*
X466010D01*
X456010Y305960D02*
X466010D01*
X471758Y210616D02*
Y228616D01*
X481758Y210616D02*
Y228616D01*
X471758Y210616D02*
X481758D01*
X471758Y228616D02*
X481758D01*
X484776Y745570D02*
X502776D01*
X484776Y755570D02*
X502776D01*
Y745570D02*
Y755570D01*
X484776Y745570D02*
Y755570D01*
X502810Y842184D02*
X520810D01*
X502810Y832184D02*
X520810D01*
X502810D02*
Y842184D01*
X520810Y832184D02*
Y842184D01*
X457090Y841930D02*
X475090D01*
X457090Y831930D02*
X475090D01*
X457090D02*
Y841930D01*
X475090Y831930D02*
Y841930D01*
X438992Y715408D02*
Y733408D01*
X448992Y715408D02*
Y733408D01*
X438992Y715408D02*
X448992D01*
X438992Y733408D02*
X448992D01*
X507912Y823315D02*
X507079Y824148D01*
X505413D01*
X504580Y823315D01*
Y819983D01*
X505413Y819150D01*
X507079D01*
X507912Y819983D01*
X509578Y819150D02*
X511245D01*
X510411D01*
Y824148D01*
X509578Y823315D01*
X513744D02*
X514577Y824148D01*
X516243D01*
X517076Y823315D01*
Y822482D01*
X516243Y821649D01*
X517076Y820816D01*
Y819983D01*
X516243Y819150D01*
X514577D01*
X513744Y819983D01*
Y820816D01*
X514577Y821649D01*
X513744Y822482D01*
Y823315D01*
X514577Y821649D02*
X516243D01*
X701903Y945476D02*
X702736Y946309D01*
Y947975D01*
X701903Y948808D01*
X698571D01*
X697738Y947975D01*
Y946309D01*
X698571Y945476D01*
X701903Y943810D02*
X702736Y942977D01*
Y941311D01*
X701903Y940477D01*
X701070D01*
X700237Y941311D01*
Y942143D01*
Y941311D01*
X699404Y940477D01*
X698571D01*
X697738Y941311D01*
Y942977D01*
X698571Y943810D01*
X701903Y938811D02*
X702736Y937978D01*
Y936312D01*
X701903Y935479D01*
X698571D01*
X697738Y936312D01*
Y937978D01*
X698571Y938811D01*
X701903D01*
X429117Y739228D02*
X429950Y740061D01*
Y741727D01*
X429117Y742560D01*
X425785D01*
X424952Y741727D01*
Y740061D01*
X425785Y739228D01*
X424952Y734229D02*
Y737562D01*
X428284Y734229D01*
X429117D01*
X429950Y735062D01*
Y736729D01*
X429117Y737562D01*
X424952Y732563D02*
Y730897D01*
Y731730D01*
X429950D01*
X429117Y732563D01*
X680368Y947944D02*
X675370D01*
Y945445D01*
X676203Y944612D01*
X679535D01*
X680368Y945445D01*
Y947944D01*
X675370Y940446D02*
X680368D01*
X677869Y942946D01*
Y939613D01*
X573945Y205280D02*
X573072Y204407D01*
Y202661D01*
X573945Y201788D01*
X577437D01*
X578310Y202661D01*
Y204407D01*
X577437Y205280D01*
Y207026D02*
X578310Y207899D01*
Y209646D01*
X577437Y210518D01*
X573945D01*
X573072Y209646D01*
Y207899D01*
X573945Y207026D01*
X574818D01*
X575691Y207899D01*
Y210518D01*
X702294Y418240D02*
Y413242D01*
X704793D01*
X705626Y414075D01*
Y417407D01*
X704793Y418240D01*
X702294D01*
X707292Y417407D02*
X708126Y418240D01*
X709792D01*
X710625Y417407D01*
Y416574D01*
X709792Y415741D01*
X708959D01*
X709792D01*
X710625Y414908D01*
Y414075D01*
X709792Y413242D01*
X708126D01*
X707292Y414075D01*
X337654Y783489D02*
X338487Y782656D01*
X340153D01*
X340986Y783489D01*
Y786821D01*
X340153Y787654D01*
X338487D01*
X337654Y786821D01*
X332655Y787654D02*
X335988D01*
X332655Y784322D01*
Y783489D01*
X333489Y782656D01*
X335155D01*
X335988Y783489D01*
X330989Y786821D02*
X330156Y787654D01*
X328490D01*
X327657Y786821D01*
Y783489D01*
X328490Y782656D01*
X330156D01*
X330989Y783489D01*
Y784322D01*
X330156Y785155D01*
X327657D01*
X469988Y786537D02*
X470821Y785704D01*
X472487D01*
X473320Y786537D01*
Y789869D01*
X472487Y790702D01*
X470821D01*
X469988Y789869D01*
X468322Y790702D02*
X466656D01*
X467489D01*
Y785704D01*
X468322Y786537D01*
X460824Y785704D02*
X462490Y786537D01*
X464156Y788203D01*
Y789869D01*
X463323Y790702D01*
X461657D01*
X460824Y789869D01*
Y789036D01*
X461657Y788203D01*
X464156D01*
X209396Y474882D02*
Y469884D01*
X212728D01*
X217726Y474882D02*
X214394D01*
Y469884D01*
X217726D01*
X214394Y472383D02*
X216060D01*
X219392Y474882D02*
Y469884D01*
X221891D01*
X222725Y470717D01*
Y474049D01*
X221891Y474882D01*
X219392D01*
X227723Y469884D02*
X224391D01*
X227723Y473216D01*
Y474049D01*
X226890Y474882D01*
X225224D01*
X224391Y474049D01*
X318350Y902869D02*
X319183Y902036D01*
X320849D01*
X321682Y902869D01*
Y906201D01*
X320849Y907034D01*
X319183D01*
X318350Y906201D01*
X313351Y907034D02*
X316684D01*
X313351Y903702D01*
Y902869D01*
X314184Y902036D01*
X315851D01*
X316684Y902869D01*
X308353Y902036D02*
X310019Y902869D01*
X311685Y904535D01*
Y906201D01*
X310852Y907034D01*
X309186D01*
X308353Y906201D01*
Y905368D01*
X309186Y904535D01*
X311685D01*
X318096Y884327D02*
X318929Y883494D01*
X320595D01*
X321428Y884327D01*
Y887659D01*
X320595Y888492D01*
X318929D01*
X318096Y887659D01*
X313097Y888492D02*
X316430D01*
X313097Y885160D01*
Y884327D01*
X313930Y883494D01*
X315597D01*
X316430Y884327D01*
X308099Y883494D02*
X311431D01*
Y885993D01*
X309765Y885160D01*
X308932D01*
X308099Y885993D01*
Y887659D01*
X308932Y888492D01*
X310598D01*
X311431Y887659D01*
X385410Y892495D02*
X388743Y887496D01*
Y892495D02*
X385410Y887496D01*
X390409D02*
X392075D01*
X391242D01*
Y892495D01*
X390409Y891662D01*
X337654Y751231D02*
X338487Y750398D01*
X340153D01*
X340986Y751231D01*
Y754563D01*
X340153Y755396D01*
X338487D01*
X337654Y754563D01*
X332655Y755396D02*
X335988D01*
X332655Y752064D01*
Y751231D01*
X333489Y750398D01*
X335155D01*
X335988Y751231D01*
X330989Y750398D02*
X327657D01*
Y751231D01*
X330989Y754563D01*
Y755396D01*
X337654Y766979D02*
X338487Y766146D01*
X340153D01*
X340986Y766979D01*
Y770311D01*
X340153Y771144D01*
X338487D01*
X337654Y770311D01*
X332655Y771144D02*
X335988D01*
X332655Y767812D01*
Y766979D01*
X333489Y766146D01*
X335155D01*
X335988Y766979D01*
X330989D02*
X330156Y766146D01*
X328490D01*
X327657Y766979D01*
Y767812D01*
X328490Y768645D01*
X327657Y769478D01*
Y770311D01*
X328490Y771144D01*
X330156D01*
X330989Y770311D01*
Y769478D01*
X330156Y768645D01*
X330989Y767812D01*
Y766979D01*
X330156Y768645D02*
X328490D01*
X510198Y790295D02*
X509365Y791128D01*
X507699D01*
X506866Y790295D01*
Y786963D01*
X507699Y786130D01*
X509365D01*
X510198Y786963D01*
X511864Y786130D02*
X513531D01*
X512697D01*
Y791128D01*
X511864Y790295D01*
X519362Y791128D02*
X516030D01*
Y788629D01*
X517696Y789462D01*
X518529D01*
X519362Y788629D01*
Y786963D01*
X518529Y786130D01*
X516863D01*
X516030Y786963D01*
X469734Y819557D02*
X470567Y818724D01*
X472233D01*
X473066Y819557D01*
Y822889D01*
X472233Y823722D01*
X470567D01*
X469734Y822889D01*
X468068Y823722D02*
X466401D01*
X467235D01*
Y818724D01*
X468068Y819557D01*
X463902Y818724D02*
X460570D01*
Y819557D01*
X463902Y822889D01*
Y823722D01*
X489878Y767435D02*
X489045Y768268D01*
X487379D01*
X486546Y767435D01*
Y764103D01*
X487379Y763270D01*
X489045D01*
X489878Y764103D01*
X491544Y763270D02*
X493210D01*
X492377D01*
Y768268D01*
X491544Y767435D01*
X495710D02*
X496543Y768268D01*
X498209D01*
X499042Y767435D01*
Y766602D01*
X498209Y765769D01*
X497376D01*
X498209D01*
X499042Y764936D01*
Y764103D01*
X498209Y763270D01*
X496543D01*
X495710Y764103D01*
X422791Y178226D02*
Y173227D01*
X426123D01*
X431122Y178226D02*
X427789D01*
Y173227D01*
X431122D01*
X427789Y175726D02*
X429456D01*
X432788Y178226D02*
Y173227D01*
X435287D01*
X436120Y174060D01*
Y177393D01*
X435287Y178226D01*
X432788D01*
X437786Y173227D02*
X439452D01*
X438619D01*
Y178226D01*
X437786Y177393D01*
X60872Y347065D02*
X60039Y347898D01*
X58373D01*
X57540Y347065D01*
Y343733D01*
X58373Y342900D01*
X60039D01*
X60872Y343733D01*
X62538Y342900D02*
X64205D01*
X63371D01*
Y347898D01*
X62538Y347065D01*
X68668Y361595D02*
X69501Y360762D01*
X71167D01*
X72000Y361595D01*
Y364927D01*
X71167Y365760D01*
X69501D01*
X68668Y364927D01*
X63669Y365760D02*
X67002D01*
X63669Y362428D01*
Y361595D01*
X64503Y360762D01*
X66169D01*
X67002Y361595D01*
X26771Y298284D02*
X27604Y299117D01*
Y300783D01*
X26771Y301616D01*
X23439D01*
X22606Y300783D01*
Y299117D01*
X23439Y298284D01*
X26771Y296618D02*
X27604Y295785D01*
Y294118D01*
X26771Y293285D01*
X25938D01*
X25105Y294118D01*
Y294951D01*
Y294118D01*
X24272Y293285D01*
X23439D01*
X22606Y294118D01*
Y295785D01*
X23439Y296618D01*
X583018Y610515D02*
X583851Y609682D01*
X585517D01*
X586350Y610515D01*
Y613847D01*
X585517Y614680D01*
X583851D01*
X583018Y613847D01*
X578853Y614680D02*
Y609682D01*
X581352Y612181D01*
X578019D01*
X591732Y533501D02*
X590899Y534334D01*
X589233D01*
X588400Y533501D01*
Y530169D01*
X589233Y529336D01*
X590899D01*
X591732Y530169D01*
X596731Y534334D02*
X593398D01*
Y531835D01*
X595065Y532668D01*
X595897D01*
X596731Y531835D01*
Y530169D01*
X595897Y529336D01*
X594231D01*
X593398Y530169D01*
X60872Y74015D02*
X60039Y74848D01*
X58373D01*
X57540Y74015D01*
Y70683D01*
X58373Y69850D01*
X60039D01*
X60872Y70683D01*
X65871Y74848D02*
X64205Y74015D01*
X62538Y72349D01*
Y70683D01*
X63371Y69850D01*
X65037D01*
X65871Y70683D01*
Y71516D01*
X65037Y72349D01*
X62538D01*
X566332Y269595D02*
X565499Y270428D01*
X563833D01*
X563000Y269595D01*
Y266263D01*
X563833Y265430D01*
X565499D01*
X566332Y266263D01*
X567998Y270428D02*
X571331D01*
Y269595D01*
X567998Y266263D01*
Y265430D01*
X566332Y250545D02*
X565499Y251378D01*
X563833D01*
X563000Y250545D01*
Y247213D01*
X563833Y246380D01*
X565499D01*
X566332Y247213D01*
X567998Y250545D02*
X568831Y251378D01*
X570498D01*
X571331Y250545D01*
Y249712D01*
X570498Y248879D01*
X571331Y248046D01*
Y247213D01*
X570498Y246380D01*
X568831D01*
X567998Y247213D01*
Y248046D01*
X568831Y248879D01*
X567998Y249712D01*
Y250545D01*
X568831Y248879D02*
X570498D01*
X494945Y319444D02*
X494112Y318611D01*
Y316945D01*
X494945Y316112D01*
X498277D01*
X499110Y316945D01*
Y318611D01*
X498277Y319444D01*
X499110Y321110D02*
Y322776D01*
Y321943D01*
X494112D01*
X494945Y321110D01*
Y325276D02*
X494112Y326109D01*
Y327775D01*
X494945Y328608D01*
X498277D01*
X499110Y327775D01*
Y326109D01*
X498277Y325276D01*
X494945D01*
X459385Y311062D02*
X458552Y310229D01*
Y308563D01*
X459385Y307730D01*
X462717D01*
X463550Y308563D01*
Y310229D01*
X462717Y311062D01*
X463550Y312728D02*
Y314394D01*
Y313561D01*
X458552D01*
X459385Y312728D01*
X463550Y316894D02*
Y318560D01*
Y317727D01*
X458552D01*
X459385Y316894D01*
X478383Y223514D02*
X479216Y224347D01*
Y226013D01*
X478383Y226846D01*
X475051D01*
X474218Y226013D01*
Y224347D01*
X475051Y223514D01*
X474218Y221848D02*
Y220182D01*
Y221015D01*
X479216D01*
X478383Y221848D01*
X474218Y214350D02*
Y217682D01*
X477550Y214350D01*
X478383D01*
X479216Y215183D01*
Y216849D01*
X478383Y217682D01*
X489878Y752195D02*
X489045Y753028D01*
X487379D01*
X486546Y752195D01*
Y748863D01*
X487379Y748030D01*
X489045D01*
X489878Y748863D01*
X491544Y748030D02*
X493210D01*
X492377D01*
Y753028D01*
X491544Y752195D01*
X498209Y748030D02*
Y753028D01*
X495710Y750529D01*
X499042D01*
X515708Y835559D02*
X516541Y834726D01*
X518207D01*
X519040Y835559D01*
Y838891D01*
X518207Y839724D01*
X516541D01*
X515708Y838891D01*
X514042Y839724D02*
X512375D01*
X513209D01*
Y834726D01*
X514042Y835559D01*
X509876Y838891D02*
X509043Y839724D01*
X507377D01*
X506544Y838891D01*
Y835559D01*
X507377Y834726D01*
X509043D01*
X509876Y835559D01*
Y836392D01*
X509043Y837225D01*
X506544D01*
X469988Y835305D02*
X470821Y834472D01*
X472487D01*
X473320Y835305D01*
Y838637D01*
X472487Y839470D01*
X470821D01*
X469988Y838637D01*
X464989Y839470D02*
X468322D01*
X464989Y836138D01*
Y835305D01*
X465822Y834472D01*
X467489D01*
X468322Y835305D01*
X463323D02*
X462490Y834472D01*
X460824D01*
X459991Y835305D01*
Y838637D01*
X460824Y839470D01*
X462490D01*
X463323Y838637D01*
Y835305D01*
X445617Y728306D02*
X446450Y729139D01*
Y730805D01*
X445617Y731638D01*
X442285D01*
X441452Y730805D01*
Y729139D01*
X442285Y728306D01*
X441452Y723307D02*
Y726640D01*
X444784Y723307D01*
X445617D01*
X446450Y724140D01*
Y725807D01*
X445617Y726640D01*
X441452Y718309D02*
Y721641D01*
X444784Y718309D01*
X445617D01*
X446450Y719142D01*
Y720808D01*
X445617Y721641D01*
D13*
X651470Y889960D02*
G03*
X651470Y889960I-1000J0D01*
G01*
D15*
X481504Y276390D02*
G03*
X481504Y276390I-1414J0D01*
G01*
X631943Y937624D02*
X634482Y935085D01*
X639561D01*
X642100Y937624D01*
Y940163D01*
X639561Y942702D01*
X634482D01*
X631943Y945242D01*
Y947781D01*
X634482Y950320D01*
X639561D01*
X642100Y947781D01*
X626865Y935085D02*
Y950320D01*
X621786Y945242D01*
X616708Y950320D01*
Y935085D01*
X611630Y950320D02*
X606551D01*
X609090D01*
Y935085D01*
X611630Y937624D01*
D16*
X647970Y900000D02*
Y960000D01*
X587970D02*
X647970D01*
X587970Y900000D02*
Y960000D01*
Y900000D02*
X647970D01*
X54130Y286117D02*
Y278619D01*
X55630Y277120D01*
X58629D01*
X60128Y278619D01*
Y286117D01*
X63127Y277120D02*
X66126D01*
X64627D01*
Y286117D01*
X63127Y284618D01*
X57620Y105987D02*
Y98490D01*
X59120Y96990D01*
X62119D01*
X63618Y98490D01*
Y105987D01*
X66617Y104488D02*
X68117Y105987D01*
X71116D01*
X72615Y104488D01*
Y102988D01*
X71116Y101489D01*
X69616D01*
X71116D01*
X72615Y99989D01*
Y98490D01*
X71116Y96990D01*
X68117D01*
X66617Y98490D01*
X605380Y576453D02*
Y583950D01*
X603881Y585450D01*
X600881D01*
X599382Y583950D01*
Y576453D01*
X590385Y585450D02*
X596383D01*
X590385Y579452D01*
Y577952D01*
X591884Y576453D01*
X594883D01*
X596383Y577952D01*
D131*
X334837Y920594D02*
X338836D01*
Y923593D01*
X336837D01*
X338836D01*
Y926592D01*
X332838Y920594D02*
Y926592D01*
X329839D01*
X328839Y925592D01*
Y924593D01*
X329839Y923593D01*
X332838D01*
X329839D01*
X328839Y922593D01*
Y921594D01*
X329839Y920594D01*
X332838D01*
X322841Y926592D02*
X326840D01*
X322841Y922593D01*
Y921594D01*
X323841Y920594D01*
X325840D01*
X326840Y921594D01*
X531270Y578169D02*
Y582168D01*
X528271D01*
Y580169D01*
Y582168D01*
X525272D01*
X531270Y576170D02*
X525272D01*
Y573171D01*
X526272Y572171D01*
X527271D01*
X528271Y573171D01*
Y576170D01*
Y573171D01*
X529271Y572171D01*
X530270D01*
X531270Y573171D01*
Y576170D01*
X525272Y570172D02*
Y568172D01*
Y569172D01*
X531270D01*
X530270Y570172D01*
X313371Y739804D02*
X309372D01*
Y736805D01*
X311371D01*
X309372D01*
Y733806D01*
X315370Y739804D02*
Y733806D01*
X318369D01*
X319369Y734806D01*
Y735805D01*
X318369Y736805D01*
X315370D01*
X318369D01*
X319369Y737805D01*
Y738804D01*
X318369Y739804D01*
X315370D01*
X321368Y738804D02*
X322368Y739804D01*
X324367D01*
X325367Y738804D01*
Y737805D01*
X324367Y736805D01*
X323368D01*
X324367D01*
X325367Y735805D01*
Y734806D01*
X324367Y733806D01*
X322368D01*
X321368Y734806D01*
X442414Y755957D02*
Y746960D01*
X448412D01*
X451411Y754457D02*
X452911Y755957D01*
X455910D01*
X457409Y754457D01*
Y752958D01*
X455910Y751459D01*
X454410D01*
X455910D01*
X457409Y749959D01*
Y748459D01*
X455910Y746960D01*
X452911D01*
X451411Y748459D01*
X505767Y301044D02*
X496770D01*
Y295046D01*
Y292047D02*
Y289048D01*
Y290547D01*
X505767D01*
X504268Y292047D01*
D132*
X138769Y821004D02*
Y824003D01*
X136770D01*
X133771Y821004D02*
X135770D01*
Y822504D01*
X134770Y822004D01*
X134270D01*
X133771Y822504D01*
Y823503D01*
X134270Y824003D01*
X135270D01*
X135770Y823503D01*
X172043Y821004D02*
Y824003D01*
X170044D01*
X167544D02*
Y821004D01*
X169044Y822504D01*
X167045D01*
X150186Y823002D02*
X149686Y822502D01*
Y821503D01*
X150186Y821003D01*
X152186D01*
X152685Y821503D01*
Y822502D01*
X152186Y823002D01*
X152685Y826001D02*
Y824002D01*
X150686Y826001D01*
X150186D01*
X149686Y825501D01*
Y824502D01*
X150186Y824002D01*
X152685Y828500D02*
X149686D01*
X151186Y827001D01*
Y829000D01*
X183336Y823003D02*
X182836Y822503D01*
Y821503D01*
X183336Y821003D01*
X185335D01*
X185835Y821503D01*
Y822503D01*
X185335Y823003D01*
X185835Y826002D02*
Y824002D01*
X183836Y826002D01*
X183336D01*
X182836Y825502D01*
Y824502D01*
X183336Y824002D01*
Y827001D02*
X182836Y827501D01*
Y828501D01*
X183336Y829001D01*
X183836D01*
X184335Y828501D01*
Y828001D01*
Y828501D01*
X184835Y829001D01*
X185335D01*
X185835Y828501D01*
Y827501D01*
X185335Y827001D01*
D133*
X456038Y277190D02*
X450623D01*
X449540Y276107D01*
Y273941D01*
X450623Y272858D01*
X456038D01*
X449540Y267443D02*
X456038D01*
X452789Y270692D01*
Y266360D01*
M02*
