G04*
G04 #@! TF.GenerationSoftware,Altium Limited,Altium Designer,24.1.2 (44)*
G04*
G04 Layer_Color=8388736*
%FSLAX44Y44*%
%MOMM*%
G71*
G04*
G04 #@! TF.SameCoordinates,F17E1149-1677-4603-BC53-BAD2445CDC7D*
G04*
G04*
G04 #@! TF.FilePolarity,Negative*
G04*
G01*
G75*
G04:AMPARAMS|DCode=64|XSize=1.4032mm|YSize=1.2032mm|CornerRadius=0.3516mm|HoleSize=0mm|Usage=FLASHONLY|Rotation=90.000|XOffset=0mm|YOffset=0mm|HoleType=Round|Shape=RoundedRectangle|*
%AMROUNDEDRECTD64*
21,1,1.4032,0.5000,0,0,90.0*
21,1,0.7000,1.2032,0,0,90.0*
1,1,0.7032,0.2500,0.3500*
1,1,0.7032,0.2500,-0.3500*
1,1,0.7032,-0.2500,-0.3500*
1,1,0.7032,-0.2500,0.3500*
%
%ADD64ROUNDEDRECTD64*%
G04:AMPARAMS|DCode=65|XSize=1.1032mm|YSize=1.1032mm|CornerRadius=0.3266mm|HoleSize=0mm|Usage=FLASHONLY|Rotation=0.000|XOffset=0mm|YOffset=0mm|HoleType=Round|Shape=RoundedRectangle|*
%AMROUNDEDRECTD65*
21,1,1.1032,0.4500,0,0,0.0*
21,1,0.4500,1.1032,0,0,0.0*
1,1,0.6532,0.2250,-0.2250*
1,1,0.6532,-0.2250,-0.2250*
1,1,0.6532,-0.2250,0.2250*
1,1,0.6532,0.2250,0.2250*
%
%ADD65ROUNDEDRECTD65*%
%ADD66R,4.5300X4.5300*%
%ADD67O,0.3000X0.9400*%
%ADD68R,0.3000X0.9400*%
%ADD69O,0.9400X0.3000*%
G04:AMPARAMS|DCode=70|XSize=1.4032mm|YSize=1.2032mm|CornerRadius=0.3516mm|HoleSize=0mm|Usage=FLASHONLY|Rotation=0.000|XOffset=0mm|YOffset=0mm|HoleType=Round|Shape=RoundedRectangle|*
%AMROUNDEDRECTD70*
21,1,1.4032,0.5000,0,0,0.0*
21,1,0.7000,1.2032,0,0,0.0*
1,1,0.7032,0.3500,-0.2500*
1,1,0.7032,-0.3500,-0.2500*
1,1,0.7032,-0.3500,0.2500*
1,1,0.7032,0.3500,0.2500*
%
%ADD70ROUNDEDRECTD70*%
%ADD71R,5.7032X5.7032*%
G04:AMPARAMS|DCode=72|XSize=0.82mm|YSize=0.97mm|CornerRadius=0.235mm|HoleSize=0mm|Usage=FLASHONLY|Rotation=270.000|XOffset=0mm|YOffset=0mm|HoleType=Round|Shape=RoundedRectangle|*
%AMROUNDEDRECTD72*
21,1,0.8200,0.5000,0,0,270.0*
21,1,0.3500,0.9700,0,0,270.0*
1,1,0.4700,-0.2500,-0.1750*
1,1,0.4700,-0.2500,0.1750*
1,1,0.4700,0.2500,0.1750*
1,1,0.4700,0.2500,-0.1750*
%
%ADD72ROUNDEDRECTD72*%
%ADD73R,0.6532X0.7032*%
G04:AMPARAMS|DCode=74|XSize=2.2032mm|YSize=1.6032mm|CornerRadius=0.4516mm|HoleSize=0mm|Usage=FLASHONLY|Rotation=90.000|XOffset=0mm|YOffset=0mm|HoleType=Round|Shape=RoundedRectangle|*
%AMROUNDEDRECTD74*
21,1,2.2032,0.7000,0,0,90.0*
21,1,1.3000,1.6032,0,0,90.0*
1,1,0.9032,0.3500,0.6500*
1,1,0.9032,0.3500,-0.6500*
1,1,0.9032,-0.3500,-0.6500*
1,1,0.9032,-0.3500,0.6500*
%
%ADD74ROUNDEDRECTD74*%
%ADD75R,0.7032X0.6532*%
G04:AMPARAMS|DCode=76|XSize=0.82mm|YSize=0.97mm|CornerRadius=0.235mm|HoleSize=0mm|Usage=FLASHONLY|Rotation=0.000|XOffset=0mm|YOffset=0mm|HoleType=Round|Shape=RoundedRectangle|*
%AMROUNDEDRECTD76*
21,1,0.8200,0.5000,0,0,0.0*
21,1,0.3500,0.9700,0,0,0.0*
1,1,0.4700,0.1750,-0.2500*
1,1,0.4700,-0.1750,-0.2500*
1,1,0.4700,-0.1750,0.2500*
1,1,0.4700,0.1750,0.2500*
%
%ADD76ROUNDEDRECTD76*%
%ADD77R,1.2032X3.4032*%
%ADD78R,0.9016X1.3016*%
%ADD79R,0.8616X1.3016*%
%ADD80R,0.8016X1.3016*%
%ADD81R,3.4032X1.2032*%
%ADD82R,1.0032X1.0032*%
G04:AMPARAMS|DCode=83|XSize=1.0032mm|YSize=1.0032mm|CornerRadius=0.3016mm|HoleSize=0mm|Usage=FLASHONLY|Rotation=90.000|XOffset=0mm|YOffset=0mm|HoleType=Round|Shape=RoundedRectangle|*
%AMROUNDEDRECTD83*
21,1,1.0032,0.4000,0,0,90.0*
21,1,0.4000,1.0032,0,0,90.0*
1,1,0.6032,0.2000,0.2000*
1,1,0.6032,0.2000,-0.2000*
1,1,0.6032,-0.2000,-0.2000*
1,1,0.6032,-0.2000,0.2000*
%
%ADD83ROUNDEDRECTD83*%
G04:AMPARAMS|DCode=84|XSize=1.1032mm|YSize=1.1032mm|CornerRadius=0.3266mm|HoleSize=0mm|Usage=FLASHONLY|Rotation=270.000|XOffset=0mm|YOffset=0mm|HoleType=Round|Shape=RoundedRectangle|*
%AMROUNDEDRECTD84*
21,1,1.1032,0.4500,0,0,270.0*
21,1,0.4500,1.1032,0,0,270.0*
1,1,0.6532,-0.2250,-0.2250*
1,1,0.6532,-0.2250,0.2250*
1,1,0.6532,0.2250,0.2250*
1,1,0.6532,0.2250,-0.2250*
%
%ADD84ROUNDEDRECTD84*%
G04:AMPARAMS|DCode=85|XSize=2.8956mm|YSize=0.8382mm|CornerRadius=0.235mm|HoleSize=0mm|Usage=FLASHONLY|Rotation=0.000|XOffset=0mm|YOffset=0mm|HoleType=Round|Shape=RoundedRectangle|*
%AMROUNDEDRECTD85*
21,1,2.8956,0.3683,0,0,0.0*
21,1,2.4257,0.8382,0,0,0.0*
1,1,0.4699,1.2129,-0.1842*
1,1,0.4699,-1.2129,-0.1842*
1,1,0.4699,-1.2129,0.1842*
1,1,0.4699,1.2129,0.1842*
%
%ADD85ROUNDEDRECTD85*%
%ADD86R,0.5200X0.6200*%
G04:AMPARAMS|DCode=87|XSize=0.62mm|YSize=0.52mm|CornerRadius=0.16mm|HoleSize=0mm|Usage=FLASHONLY|Rotation=270.000|XOffset=0mm|YOffset=0mm|HoleType=Round|Shape=RoundedRectangle|*
%AMROUNDEDRECTD87*
21,1,0.6200,0.2000,0,0,270.0*
21,1,0.3000,0.5200,0,0,270.0*
1,1,0.3200,-0.1000,-0.1500*
1,1,0.3200,-0.1000,0.1500*
1,1,0.3200,0.1000,0.1500*
1,1,0.3200,0.1000,-0.1500*
%
%ADD87ROUNDEDRECTD87*%
%ADD88R,1.5200X1.2200*%
G04:AMPARAMS|DCode=89|XSize=0.62mm|YSize=0.52mm|CornerRadius=0.16mm|HoleSize=0mm|Usage=FLASHONLY|Rotation=180.000|XOffset=0mm|YOffset=0mm|HoleType=Round|Shape=RoundedRectangle|*
%AMROUNDEDRECTD89*
21,1,0.6200,0.2000,0,0,180.0*
21,1,0.3000,0.5200,0,0,180.0*
1,1,0.3200,-0.1500,0.1000*
1,1,0.3200,0.1500,0.1000*
1,1,0.3200,0.1500,-0.1000*
1,1,0.3200,-0.1500,-0.1000*
%
%ADD89ROUNDEDRECTD89*%
%ADD90R,0.6200X0.5200*%
%ADD91R,2.1900X2.1900*%
G04:AMPARAMS|DCode=92|XSize=0.38mm|YSize=0.74mm|CornerRadius=0.13mm|HoleSize=0mm|Usage=FLASHONLY|Rotation=270.000|XOffset=0mm|YOffset=0mm|HoleType=Round|Shape=RoundedRectangle|*
%AMROUNDEDRECTD92*
21,1,0.3800,0.4800,0,0,270.0*
21,1,0.1200,0.7400,0,0,270.0*
1,1,0.2600,-0.2400,-0.0600*
1,1,0.2600,-0.2400,0.0600*
1,1,0.2600,0.2400,0.0600*
1,1,0.2600,0.2400,-0.0600*
%
%ADD92ROUNDEDRECTD92*%
G04:AMPARAMS|DCode=93|XSize=0.38mm|YSize=0.74mm|CornerRadius=0.13mm|HoleSize=0mm|Usage=FLASHONLY|Rotation=0.000|XOffset=0mm|YOffset=0mm|HoleType=Round|Shape=RoundedRectangle|*
%AMROUNDEDRECTD93*
21,1,0.3800,0.4800,0,0,0.0*
21,1,0.1200,0.7400,0,0,0.0*
1,1,0.2600,0.0600,-0.2400*
1,1,0.2600,-0.0600,-0.2400*
1,1,0.2600,-0.0600,0.2400*
1,1,0.2600,0.0600,0.2400*
%
%ADD93ROUNDEDRECTD93*%
G04:AMPARAMS|DCode=94|XSize=0.38mm|YSize=0.74mm|CornerRadius=0.13mm|HoleSize=0mm|Usage=FLASHONLY|Rotation=270.000|XOffset=0mm|YOffset=0mm|HoleType=Round|Shape=RoundedRectangle|*
%AMROUNDEDRECTD94*
21,1,0.3800,0.4800,0,0,270.0*
21,1,0.1200,0.7400,0,0,270.0*
1,1,0.2600,-0.2400,-0.0600*
1,1,0.2600,-0.2400,0.0600*
1,1,0.2600,0.2400,0.0600*
1,1,0.2600,0.2400,-0.0600*
%
%ADD94ROUNDEDRECTD94*%
%ADD95R,0.3800X0.7400*%
%ADD96R,0.7632X1.1532*%
%ADD97C,4.2032*%
G04:AMPARAMS|DCode=98|XSize=3.4032mm|YSize=1.2032mm|CornerRadius=0.3516mm|HoleSize=0mm|Usage=FLASHONLY|Rotation=0.000|XOffset=0mm|YOffset=0mm|HoleType=Round|Shape=RoundedRectangle|*
%AMROUNDEDRECTD98*
21,1,3.4032,0.5000,0,0,0.0*
21,1,2.7000,1.2032,0,0,0.0*
1,1,0.7032,1.3500,-0.2500*
1,1,0.7032,-1.3500,-0.2500*
1,1,0.7032,-1.3500,0.2500*
1,1,0.7032,1.3500,0.2500*
%
%ADD98ROUNDEDRECTD98*%
G04:AMPARAMS|DCode=99|XSize=0.69mm|YSize=1.19mm|CornerRadius=0.2075mm|HoleSize=0mm|Usage=FLASHONLY|Rotation=90.000|XOffset=0mm|YOffset=0mm|HoleType=Round|Shape=RoundedRectangle|*
%AMROUNDEDRECTD99*
21,1,0.6900,0.7750,0,0,90.0*
21,1,0.2750,1.1900,0,0,90.0*
1,1,0.4150,0.3875,0.1375*
1,1,0.4150,0.3875,-0.1375*
1,1,0.4150,-0.3875,-0.1375*
1,1,0.4150,-0.3875,0.1375*
%
%ADD99ROUNDEDRECTD99*%
%ADD100R,1.1900X0.6900*%
%ADD101R,0.9734X0.5734*%
G04:AMPARAMS|DCode=102|XSize=0.5734mm|YSize=0.9734mm|CornerRadius=0.1742mm|HoleSize=0mm|Usage=FLASHONLY|Rotation=90.000|XOffset=0mm|YOffset=0mm|HoleType=Round|Shape=RoundedRectangle|*
%AMROUNDEDRECTD102*
21,1,0.5734,0.6250,0,0,90.0*
21,1,0.2250,0.9734,0,0,90.0*
1,1,0.3484,0.3125,0.1125*
1,1,0.3484,0.3125,-0.1125*
1,1,0.3484,-0.3125,-0.1125*
1,1,0.3484,-0.3125,0.1125*
%
%ADD102ROUNDEDRECTD102*%
%ADD103R,1.7234X2.6234*%
%ADD104R,0.3965X0.3965*%
%ADD105R,0.3965X0.3965*%
%ADD106C,1.7272*%
%ADD107C,4.7752*%
%ADD108C,1.7112*%
%ADD109R,1.7112X1.7112*%
%ADD110C,1.8032*%
%ADD111R,1.8032X1.8032*%
G36*
X565704Y28032D02*
X566044Y28002D01*
X566384Y27962D01*
X566714Y27902D01*
X567044Y27822D01*
X567374Y27722D01*
X567694Y27612D01*
X568004Y27482D01*
X568314Y27332D01*
X568614Y27172D01*
X568904Y26992D01*
X569184Y26802D01*
X569454Y26592D01*
X569714Y26372D01*
X569964Y26142D01*
X570194Y25892D01*
X570414Y25632D01*
X570624Y25362D01*
X570814Y25082D01*
X570994Y24792D01*
X571154Y24492D01*
X571304Y24182D01*
X571434Y23872D01*
X571544Y23552D01*
X571644Y23222D01*
X571724Y22892D01*
X571784Y22562D01*
X571824Y22222D01*
X571854Y21882D01*
X571864Y21542D01*
Y15542D01*
X571854Y15202D01*
X571824Y14862D01*
X571784Y14522D01*
X571724Y14192D01*
X571644Y13862D01*
X571544Y13532D01*
X571434Y13212D01*
X571304Y12902D01*
X571154Y12592D01*
X570994Y12292D01*
X570814Y12002D01*
X570624Y11722D01*
X570414Y11452D01*
X570194Y11192D01*
X569964Y10942D01*
X569714Y10712D01*
X569454Y10492D01*
X569184Y10282D01*
X568904Y10092D01*
X568614Y9912D01*
X568314Y9752D01*
X568004Y9602D01*
X567694Y9472D01*
X567374Y9362D01*
X567044Y9262D01*
X566714Y9182D01*
X566384Y9122D01*
X566044Y9082D01*
X565704Y9052D01*
X565364Y9042D01*
X565024Y9052D01*
X564684Y9082D01*
X564344Y9122D01*
X564014Y9182D01*
X563684Y9262D01*
X563354Y9362D01*
X563034Y9472D01*
X562724Y9602D01*
X562414Y9752D01*
X562114Y9912D01*
X561824Y10092D01*
X561544Y10282D01*
X561274Y10492D01*
X561014Y10712D01*
X560764Y10942D01*
X560534Y11192D01*
X560314Y11452D01*
X560104Y11722D01*
X559914Y12002D01*
X559734Y12292D01*
X559574Y12592D01*
X559424Y12902D01*
X559294Y13212D01*
X559184Y13532D01*
X559084Y13862D01*
X559004Y14192D01*
X558944Y14522D01*
X558904Y14862D01*
X558874Y15202D01*
X558864Y15542D01*
Y21542D01*
X558874Y21882D01*
X558904Y22222D01*
X558944Y22562D01*
X559004Y22892D01*
X559084Y23222D01*
X559184Y23552D01*
X559294Y23872D01*
X559424Y24182D01*
X559574Y24492D01*
X559734Y24792D01*
X559914Y25082D01*
X560104Y25362D01*
X560314Y25632D01*
X560534Y25892D01*
X560764Y26142D01*
X561014Y26372D01*
X561274Y26592D01*
X561544Y26802D01*
X561824Y26992D01*
X562114Y27172D01*
X562414Y27332D01*
X562724Y27482D01*
X563034Y27612D01*
X563354Y27722D01*
X563684Y27822D01*
X564014Y27902D01*
X564344Y27962D01*
X564684Y28002D01*
X565024Y28032D01*
X565364Y28042D01*
X565704Y28032D01*
D02*
G37*
G36*
Y66032D02*
X566044Y66002D01*
X566384Y65962D01*
X566714Y65902D01*
X567044Y65822D01*
X567374Y65722D01*
X567694Y65612D01*
X568004Y65482D01*
X568314Y65332D01*
X568614Y65172D01*
X568904Y64992D01*
X569184Y64802D01*
X569454Y64592D01*
X569714Y64372D01*
X569964Y64142D01*
X570194Y63892D01*
X570414Y63632D01*
X570624Y63362D01*
X570814Y63082D01*
X570994Y62792D01*
X571154Y62492D01*
X571304Y62182D01*
X571434Y61872D01*
X571544Y61552D01*
X571644Y61222D01*
X571724Y60892D01*
X571784Y60562D01*
X571824Y60222D01*
X571854Y59882D01*
X571864Y59542D01*
Y53542D01*
X571854Y53202D01*
X571824Y52862D01*
X571784Y52522D01*
X571724Y52192D01*
X571644Y51862D01*
X571544Y51532D01*
X571434Y51212D01*
X571304Y50902D01*
X571154Y50592D01*
X570994Y50292D01*
X570814Y50002D01*
X570624Y49722D01*
X570414Y49452D01*
X570194Y49192D01*
X569964Y48942D01*
X569714Y48712D01*
X569454Y48492D01*
X569184Y48282D01*
X568904Y48092D01*
X568614Y47912D01*
X568314Y47752D01*
X568004Y47602D01*
X567694Y47472D01*
X567374Y47362D01*
X567044Y47262D01*
X566714Y47182D01*
X566384Y47122D01*
X566044Y47082D01*
X565704Y47052D01*
X565364Y47042D01*
X565024Y47052D01*
X564684Y47082D01*
X564344Y47122D01*
X564014Y47182D01*
X563684Y47262D01*
X563354Y47362D01*
X563034Y47472D01*
X562724Y47602D01*
X562414Y47752D01*
X562114Y47912D01*
X561824Y48092D01*
X561544Y48282D01*
X561274Y48492D01*
X561014Y48712D01*
X560764Y48942D01*
X560534Y49192D01*
X560314Y49452D01*
X560104Y49722D01*
X559914Y50002D01*
X559734Y50292D01*
X559574Y50592D01*
X559424Y50902D01*
X559294Y51212D01*
X559184Y51532D01*
X559084Y51862D01*
X559004Y52192D01*
X558944Y52522D01*
X558904Y52862D01*
X558874Y53202D01*
X558864Y53542D01*
Y59542D01*
X558874Y59882D01*
X558904Y60222D01*
X558944Y60562D01*
X559004Y60892D01*
X559084Y61222D01*
X559184Y61552D01*
X559294Y61872D01*
X559424Y62182D01*
X559574Y62492D01*
X559734Y62792D01*
X559914Y63082D01*
X560104Y63362D01*
X560314Y63632D01*
X560534Y63892D01*
X560764Y64142D01*
X561014Y64372D01*
X561274Y64592D01*
X561544Y64802D01*
X561824Y64992D01*
X562114Y65172D01*
X562414Y65332D01*
X562724Y65482D01*
X563034Y65612D01*
X563354Y65722D01*
X563684Y65822D01*
X564014Y65902D01*
X564344Y65962D01*
X564684Y66002D01*
X565024Y66032D01*
X565364Y66042D01*
X565704Y66032D01*
D02*
G37*
G36*
X652104Y28032D02*
X652444Y28002D01*
X652784Y27962D01*
X653114Y27902D01*
X653444Y27822D01*
X653774Y27722D01*
X654094Y27612D01*
X654404Y27482D01*
X654714Y27332D01*
X655014Y27172D01*
X655304Y26992D01*
X655584Y26802D01*
X655854Y26592D01*
X656114Y26372D01*
X656364Y26142D01*
X656594Y25892D01*
X656814Y25632D01*
X657024Y25362D01*
X657214Y25082D01*
X657394Y24792D01*
X657554Y24492D01*
X657704Y24182D01*
X657834Y23872D01*
X657944Y23552D01*
X658044Y23222D01*
X658124Y22892D01*
X658184Y22562D01*
X658224Y22222D01*
X658254Y21882D01*
X658264Y21542D01*
Y15542D01*
X658254Y15202D01*
X658224Y14862D01*
X658184Y14522D01*
X658124Y14192D01*
X658044Y13862D01*
X657944Y13532D01*
X657834Y13212D01*
X657704Y12902D01*
X657554Y12592D01*
X657394Y12292D01*
X657214Y12002D01*
X657024Y11722D01*
X656814Y11452D01*
X656594Y11192D01*
X656364Y10942D01*
X656114Y10712D01*
X655854Y10492D01*
X655584Y10282D01*
X655304Y10092D01*
X655014Y9912D01*
X654714Y9752D01*
X654404Y9602D01*
X654094Y9472D01*
X653774Y9362D01*
X653444Y9262D01*
X653114Y9182D01*
X652784Y9122D01*
X652444Y9082D01*
X652104Y9052D01*
X651764Y9042D01*
X651424Y9052D01*
X651084Y9082D01*
X650744Y9122D01*
X650414Y9182D01*
X650084Y9262D01*
X649754Y9362D01*
X649434Y9472D01*
X649124Y9602D01*
X648814Y9752D01*
X648514Y9912D01*
X648224Y10092D01*
X647944Y10282D01*
X647674Y10492D01*
X647414Y10712D01*
X647164Y10942D01*
X646934Y11192D01*
X646714Y11452D01*
X646504Y11722D01*
X646314Y12002D01*
X646134Y12292D01*
X645974Y12592D01*
X645824Y12902D01*
X645694Y13212D01*
X645584Y13532D01*
X645484Y13862D01*
X645404Y14192D01*
X645344Y14522D01*
X645304Y14862D01*
X645274Y15202D01*
X645264Y15542D01*
Y21542D01*
X645274Y21882D01*
X645304Y22222D01*
X645344Y22562D01*
X645404Y22892D01*
X645484Y23222D01*
X645584Y23552D01*
X645694Y23872D01*
X645824Y24182D01*
X645974Y24492D01*
X646134Y24792D01*
X646314Y25082D01*
X646504Y25362D01*
X646714Y25632D01*
X646934Y25892D01*
X647164Y26142D01*
X647414Y26372D01*
X647674Y26592D01*
X647944Y26802D01*
X648224Y26992D01*
X648514Y27172D01*
X648814Y27332D01*
X649124Y27482D01*
X649434Y27612D01*
X649754Y27722D01*
X650084Y27822D01*
X650414Y27902D01*
X650744Y27962D01*
X651084Y28002D01*
X651424Y28032D01*
X651764Y28042D01*
X652104Y28032D01*
D02*
G37*
G36*
Y66032D02*
X652444Y66002D01*
X652784Y65962D01*
X653114Y65902D01*
X653444Y65822D01*
X653774Y65722D01*
X654094Y65612D01*
X654404Y65482D01*
X654714Y65332D01*
X655014Y65172D01*
X655304Y64992D01*
X655584Y64802D01*
X655854Y64592D01*
X656114Y64372D01*
X656364Y64142D01*
X656594Y63892D01*
X656814Y63632D01*
X657024Y63362D01*
X657214Y63082D01*
X657394Y62792D01*
X657554Y62492D01*
X657704Y62182D01*
X657834Y61872D01*
X657944Y61552D01*
X658044Y61222D01*
X658124Y60892D01*
X658184Y60562D01*
X658224Y60222D01*
X658254Y59882D01*
X658264Y59542D01*
Y53542D01*
X658254Y53202D01*
X658224Y52862D01*
X658184Y52522D01*
X658124Y52192D01*
X658044Y51862D01*
X657944Y51532D01*
X657834Y51212D01*
X657704Y50902D01*
X657554Y50592D01*
X657394Y50292D01*
X657214Y50002D01*
X657024Y49722D01*
X656814Y49452D01*
X656594Y49192D01*
X656364Y48942D01*
X656114Y48712D01*
X655854Y48492D01*
X655584Y48282D01*
X655304Y48092D01*
X655014Y47912D01*
X654714Y47752D01*
X654404Y47602D01*
X654094Y47472D01*
X653774Y47362D01*
X653444Y47262D01*
X653114Y47182D01*
X652784Y47122D01*
X652444Y47082D01*
X652104Y47052D01*
X651764Y47042D01*
X651424Y47052D01*
X651084Y47082D01*
X650744Y47122D01*
X650414Y47182D01*
X650084Y47262D01*
X649754Y47362D01*
X649434Y47472D01*
X649124Y47602D01*
X648814Y47752D01*
X648514Y47912D01*
X648224Y48092D01*
X647944Y48282D01*
X647674Y48492D01*
X647414Y48712D01*
X647164Y48942D01*
X646934Y49192D01*
X646714Y49452D01*
X646504Y49722D01*
X646314Y50002D01*
X646134Y50292D01*
X645974Y50592D01*
X645824Y50902D01*
X645694Y51212D01*
X645584Y51532D01*
X645484Y51862D01*
X645404Y52192D01*
X645344Y52522D01*
X645304Y52862D01*
X645274Y53202D01*
X645264Y53542D01*
Y59542D01*
X645274Y59882D01*
X645304Y60222D01*
X645344Y60562D01*
X645404Y60892D01*
X645484Y61222D01*
X645584Y61552D01*
X645694Y61872D01*
X645824Y62182D01*
X645974Y62492D01*
X646134Y62792D01*
X646314Y63082D01*
X646504Y63362D01*
X646714Y63632D01*
X646934Y63892D01*
X647164Y64142D01*
X647414Y64372D01*
X647674Y64592D01*
X647944Y64802D01*
X648224Y64992D01*
X648514Y65172D01*
X648814Y65332D01*
X649124Y65482D01*
X649434Y65612D01*
X649754Y65722D01*
X650084Y65822D01*
X650414Y65902D01*
X650744Y65962D01*
X651084Y66002D01*
X651424Y66032D01*
X651764Y66042D01*
X652104Y66032D01*
D02*
G37*
D64*
X521810Y821690D02*
D03*
X501810D02*
D03*
X323756Y785114D02*
D03*
X343756D02*
D03*
X456090Y788162D02*
D03*
X476090D02*
D03*
X304452Y904494D02*
D03*
X324452D02*
D03*
X324198Y885952D02*
D03*
X304198D02*
D03*
X343756Y752856D02*
D03*
X323756D02*
D03*
X343756Y768604D02*
D03*
X323756D02*
D03*
X504096Y788670D02*
D03*
X524096D02*
D03*
X475836Y821182D02*
D03*
X455836D02*
D03*
X483776Y765810D02*
D03*
X503776D02*
D03*
X74770Y345440D02*
D03*
X54770D02*
D03*
Y363220D02*
D03*
X74770D02*
D03*
X569120Y612140D02*
D03*
X589120D02*
D03*
X605630Y531876D02*
D03*
X585630D02*
D03*
X74770Y72390D02*
D03*
X54770D02*
D03*
X580230Y267970D02*
D03*
X560230D02*
D03*
X580230Y248920D02*
D03*
X560230D02*
D03*
X503776Y750570D02*
D03*
X483776D02*
D03*
X501810Y837184D02*
D03*
X521810D02*
D03*
X456090Y836930D02*
D03*
X476090D02*
D03*
D65*
X723900Y935610D02*
D03*
Y951610D02*
D03*
X599440Y315850D02*
D03*
Y331850D02*
D03*
X562610Y545720D02*
D03*
Y561720D02*
D03*
X102870Y103760D02*
D03*
Y119760D02*
D03*
X469900Y19940D02*
D03*
Y35940D02*
D03*
D66*
X398490Y811738D02*
D03*
D67*
X420490Y782388D02*
D03*
X416490Y841088D02*
D03*
X412490D02*
D03*
X408490D02*
D03*
X404490D02*
D03*
X400490D02*
D03*
X396490D02*
D03*
X392491D02*
D03*
X388490D02*
D03*
X384491D02*
D03*
X380490D02*
D03*
X376491D02*
D03*
Y782388D02*
D03*
X380490D02*
D03*
X384491D02*
D03*
X388490D02*
D03*
X392491D02*
D03*
X396490D02*
D03*
X400490D02*
D03*
X408490D02*
D03*
X412490D02*
D03*
X416490D02*
D03*
X404490D02*
D03*
D68*
X420490Y841088D02*
D03*
D69*
X369140Y833738D02*
D03*
Y829738D02*
D03*
Y825738D02*
D03*
Y821738D02*
D03*
Y817738D02*
D03*
Y813738D02*
D03*
Y809738D02*
D03*
Y805738D02*
D03*
Y801738D02*
D03*
Y797738D02*
D03*
Y793738D02*
D03*
Y789738D02*
D03*
X427841D02*
D03*
Y793738D02*
D03*
Y797738D02*
D03*
Y801738D02*
D03*
Y805738D02*
D03*
Y809738D02*
D03*
Y813738D02*
D03*
Y817738D02*
D03*
Y821738D02*
D03*
Y825738D02*
D03*
Y829738D02*
D03*
Y833738D02*
D03*
D70*
X700278Y931578D02*
D03*
Y951578D02*
D03*
X427492Y745330D02*
D03*
Y725330D02*
D03*
X25146Y284386D02*
D03*
Y304386D02*
D03*
X496570Y333342D02*
D03*
Y313342D02*
D03*
X461010Y324960D02*
D03*
Y304960D02*
D03*
X476758Y209616D02*
D03*
Y229616D02*
D03*
X443992Y714408D02*
D03*
Y734408D02*
D03*
D71*
X851916Y495554D02*
D03*
Y114554D02*
D03*
D72*
X340736Y923798D02*
D03*
X324236D02*
D03*
X307472Y736600D02*
D03*
X323972D02*
D03*
D73*
X677672Y951650D02*
D03*
Y940650D02*
D03*
D74*
X588310Y208788D02*
D03*
X562310D02*
D03*
D75*
X698588Y415544D02*
D03*
X709588D02*
D03*
D76*
X528066Y584068D02*
D03*
Y567568D02*
D03*
D77*
X443914Y759460D02*
D03*
X465914D02*
D03*
D78*
X581064Y57342D02*
D03*
X636064D02*
D03*
D79*
X593364D02*
D03*
X623764D02*
D03*
D80*
X603564D02*
D03*
X613564D02*
D03*
D81*
X509270Y277544D02*
D03*
Y299544D02*
D03*
D82*
X208626Y472425D02*
D03*
X422022Y175768D02*
D03*
D83*
X224626Y472425D02*
D03*
X438022Y175768D02*
D03*
D84*
X190336Y471155D02*
D03*
X174336D02*
D03*
X624460Y576580D02*
D03*
X640460D02*
D03*
X658115Y721233D02*
D03*
X674115D02*
D03*
X658115Y678815D02*
D03*
X674115D02*
D03*
X605410Y613410D02*
D03*
X621410D02*
D03*
X585850Y971550D02*
D03*
X569850D02*
D03*
X344550Y265430D02*
D03*
X328550D02*
D03*
X133730Y323850D02*
D03*
X117730D02*
D03*
X133730Y299720D02*
D03*
X117730D02*
D03*
X328550Y281940D02*
D03*
X344550D02*
D03*
X71500Y144780D02*
D03*
X55500D02*
D03*
X582550Y111760D02*
D03*
X598550D02*
D03*
X582550Y127000D02*
D03*
X598550D02*
D03*
X344550Y232410D02*
D03*
X328550D02*
D03*
X344550Y248920D02*
D03*
X328550D02*
D03*
X344550Y199390D02*
D03*
X328550D02*
D03*
X133730Y271780D02*
D03*
X117730D02*
D03*
X91820Y242570D02*
D03*
X75820D02*
D03*
X344550Y182880D02*
D03*
X328550D02*
D03*
X344550Y215900D02*
D03*
X328550D02*
D03*
X466470Y176276D02*
D03*
X450470D02*
D03*
D85*
X110998Y593344D02*
D03*
X151638D02*
D03*
X110998Y580644D02*
D03*
X151638D02*
D03*
X110998Y567944D02*
D03*
X151638D02*
D03*
X110998Y555244D02*
D03*
X151638D02*
D03*
X110998Y542544D02*
D03*
X151638D02*
D03*
D86*
X138019Y821753D02*
D03*
X163293D02*
D03*
X171293D02*
D03*
D87*
X130019D02*
D03*
D88*
X410761Y904097D02*
D03*
X388760D02*
D03*
X388756Y888099D02*
D03*
X410756D02*
D03*
D89*
X150435Y829753D02*
D03*
X183585Y829753D02*
D03*
D90*
X150435Y821753D02*
D03*
X183585Y821753D02*
D03*
D91*
X466090Y262890D02*
D03*
D92*
X482590Y272890D02*
D03*
Y267890D02*
D03*
Y262890D02*
D03*
Y257890D02*
D03*
Y252890D02*
D03*
X449590D02*
D03*
Y262890D02*
D03*
Y267890D02*
D03*
Y272890D02*
D03*
D93*
X476090Y246390D02*
D03*
X471090D02*
D03*
X466090D02*
D03*
X461090D02*
D03*
X456090D02*
D03*
Y279390D02*
D03*
X461090D02*
D03*
X466090D02*
D03*
X471090D02*
D03*
D94*
X449590Y257890D02*
D03*
D95*
X476090Y279390D02*
D03*
D96*
X657200Y392020D02*
D03*
X638200D02*
D03*
X647700Y372520D02*
D03*
Y276450D02*
D03*
X657200Y256950D02*
D03*
X638200D02*
D03*
D97*
X850900Y574040D02*
D03*
Y934040D02*
D03*
D98*
X510540Y252730D02*
D03*
Y230730D02*
D03*
D99*
X75610Y317100D02*
D03*
Y304600D02*
D03*
Y292100D02*
D03*
Y279600D02*
D03*
X54610D02*
D03*
Y292100D02*
D03*
Y304600D02*
D03*
D100*
Y317100D02*
D03*
D101*
X55350Y119220D02*
D03*
D102*
Y109220D02*
D03*
Y99220D02*
D03*
X84350D02*
D03*
Y109220D02*
D03*
Y119220D02*
D03*
D103*
X69850Y109220D02*
D03*
D104*
X596900Y553720D02*
D03*
X591900D02*
D03*
X586900D02*
D03*
Y585220D02*
D03*
X591900D02*
D03*
X596900D02*
D03*
X601900D02*
D03*
Y553720D02*
D03*
D105*
X583900Y561970D02*
D03*
Y566970D02*
D03*
Y571970D02*
D03*
Y576970D02*
D03*
X604900D02*
D03*
Y571970D02*
D03*
Y566970D02*
D03*
Y561970D02*
D03*
D106*
X638175Y680085D02*
D03*
X165608Y272034D02*
D03*
X246380Y485140D02*
D03*
X67818Y580644D02*
D03*
Y555244D02*
D03*
Y529844D02*
D03*
X156974Y243025D02*
D03*
X189230Y529082D02*
D03*
X194564Y580390D02*
D03*
X187960Y554990D02*
D03*
X639614Y722545D02*
D03*
X622300Y323850D02*
D03*
X647700D02*
D03*
X421640Y27940D02*
D03*
X447040D02*
D03*
D107*
X939800Y50800D02*
D03*
X502920Y934212D02*
D03*
Y460248D02*
D03*
X256286Y123444D02*
D03*
D108*
X585470Y952500D02*
D03*
X650470D02*
D03*
X585470Y907500D02*
D03*
D109*
X650470D02*
D03*
D110*
X240030Y26670D02*
D03*
X214630D02*
D03*
D111*
X189230D02*
D03*
M02*
